<?xml version="1.0" encoding="utf-8"?>
<!-- Uploaded to: SVG Repo, www.svgrepo.com, Generator: SVG Repo Mixer Tools -->
<svg width="800px" height="800px" viewBox="-57.97 0 441.067 441.067" xmlns="http://www.w3.org/2000/svg"><defs><style>.a{fill:#bdbdbd;}.b{fill:#ffffff;}.c{fill:#7a7473;}.d{fill:#211715;}.e{fill:#3f88c9;}.f{fill:#79c6e0;}</style></defs><path class="a" d="M292.477,242.729c-1.612-14.088-53.066-39.366-55.715-40.806-16.671-9.066-31.131-16.617-50.126-24.49,0,0-1.348-.536-3.335-1.342-1.027,5.538-3.661,18.665-7.258,32.106-.717,2.676-1.471,5.364-2.259,8.008-7.953,26.7-17.569,52.886-25.1,69.858-1.093-2.361-1.76-3.8-1.76-3.8-6.833-14.757-19.531-44.381-28.8-70.927-5.311-15.217-9.96-26.829-12.355-34.185-19.332,7.976-33.938,15.6-50.807,24.772-3.922,2.132-9.082,2.558-11.629,6.676-3.535,3.153-7.943,8.89-11.334,17.18C25.181,242.45,13.788,275.325,9.153,292.16c-4.4,15.991-10.171,26.652-4.183,38.928S24.031,350.472,33.495,356.9c10.254,6.96,20.881,13.931,31.2,20.51q-.288,2.728-.578,5.336c8.783,0,88.641,0,168.365,0-.272-2.55-.549-5.179-.835-7.9-.9-8.566-2.272-17.14-1.753-25.738.263-4.359,1.267-21.778,2.48-39.706.265.574.414.89.414.89,7.86,12.573,23.728,30.449,39.474,28.14,17.606-2.581,20.741-25.15,21.679-39.244A309.515,309.515,0,0,0,292.477,242.729Z"/><path class="b" d="M202,91.39a8.448,8.448,0,0,1,6.761-1.978,7.979,7.979,0,0,1,5.737,3.814,11.283,11.283,0,0,1,1.181,4.537,33.8,33.8,0,0,1-3.447,17.919,21.482,21.482,0,0,1-5.556,7.292,14.242,14.242,0,0,1-6.624,2.986l-1.134.175c-.543,2.034-1.154,3.748-1.454,4.658-1.74,4.723-10.693,19.928-22.4,27.712a83.308,83.308,0,0,0,1.417,14.151c.8,4.587.552,8.687,6.929,10.99.423.152,7.5,3.42,8.451,3.84,0,0-1.984,35.3-48.206,35.3s-38.314-37.545-38.314-37.545c.78-.33,3.92-1.44,4.34-1.59,6.38-2.31,6.13-6.41,6.93-10.99a98.782,98.782,0,0,0,1.347-12.8,51.24,51.24,0,0,1-14.291-12.185,57.486,57.486,0,0,1-10.955-21.385l-2.16-.332a14.242,14.242,0,0,1-6.624-2.986,21.482,21.482,0,0,1-5.556-7.292A33.8,33.8,0,0,1,74.92,97.763,11.283,11.283,0,0,1,76.1,93.226a7.979,7.979,0,0,1,5.737-3.814A8.448,8.448,0,0,1,88.6,91.39S87.946,37.3,146.613,37.3C206.465,37.3,202,91.39,202,91.39Z"/><path class="c" d="M184.242,19.6C174.063,3,154.145,1.656,138.154,2.771,119.686,4.058,105.623,9.1,93.279,23.378,75.248,44.233,75.057,70.36,81.9,89.41a8.475,8.475,0,0,1,6.314,1.652c9.533-10.818,34.213-25.269,67.589-38.5a51.435,51.435,0,0,1,7.778-2.185l9.333-.334c9.068,0,20.63,3.281,24.67,23.137,1.693,6.7-1.22,17.391,7.217,16.6a8.544,8.544,0,0,1,3.962-.365,6.853,6.853,0,0,1,1.238.3c4.626-13.943,3.547-32.106-.643-42.811-2.8-7.161-7.1-15.425-15.793-20.2Z"/><path class="d" d="M83.837,87.706a68.07,68.07,0,0,1-3.1-31.183A61.473,61.473,0,0,1,95.5,24.473a54.17,54.17,0,0,1,26.866-16.83,85.175,85.175,0,0,1,16.4-2.514,93.569,93.569,0,0,1,14.861.085,45.458,45.458,0,0,1,15.894,4.175A30.823,30.823,0,0,1,182.17,20.811c1.626,2.619,5.78.212,4.145-2.423-6.1-9.821-16.239-15.4-27.454-17.291a93.867,93.867,0,0,0-33.27.88A59.01,59.01,0,0,0,95.313,17.7,66.374,66.374,0,0,0,76.888,50.884a72.309,72.309,0,0,0,2.32,38.1c.984,2.91,5.622,1.661,4.629-1.276Z"/><path class="d" d="M192.349,28.773c7.092,3.96,11.5,10.78,14.453,18.165,3.105,7.759,4.022,16.34,3.777,24.643a64.038,64.038,0,0,1-2.251,15.389c-.834,2.98,3.8,4.251,4.628,1.276A73.671,73.671,0,0,0,214.683,58.7a54.922,54.922,0,0,0-8.532-23.409,33.586,33.586,0,0,0-11.38-10.661c-2.7-1.507-5.123,2.637-2.422,4.145Z"/><path class="d" d="M162.938,48.063c-6.493,1.226-12.569,4.068-18.609,6.646-6.4,2.733-12.737,5.628-18.968,8.732A191.685,191.685,0,0,0,97.032,80.165a69.044,69.044,0,0,0-10.1,8.731c-2.086,2.272,1.3,5.676,3.394,3.394,5.706-6.216,12.752-10.8,19.977-15.164a284.412,284.412,0,0,1,33.447-16.977c6.609-2.886,13.33-6.11,20.462-7.457a2.423,2.423,0,0,0,1.676-2.952,2.451,2.451,0,0,0-2.952-1.677Z"/><path class="d" d="M172.909,52.444a32.161,32.161,0,0,1,4.069.247c-.553-.072.459.078.617.106q.528.093,1.051.209,1.065.235,2.105.57a18.028,18.028,0,0,1,7.35,4.618,26.633,26.633,0,0,1,5.83,10.443,42.59,42.59,0,0,1,1.655,6.83c.269,2.043.265,4.117.4,6.17.28,4.274,1.262,9.533,6.285,10.425a2.466,2.466,0,0,0,2.952-1.676,2.42,2.42,0,0,0-1.676-2.952,6.362,6.362,0,0,1-.759-.173c-.057-.018-.437-.167-.093-.025-.507-.209-.221-.038-.6-.415a4.629,4.629,0,0,1-.761-1.5,21.82,21.82,0,0,1-.643-5.379,47.6,47.6,0,0,0-2.617-14.009c-2.7-7.488-7.578-13.879-15.211-16.7a29.083,29.083,0,0,0-9.957-1.593c-3.089-.008-3.093,4.792,0,4.8Z"/><path class="d" d="M63.323,385.144H232.035c3.089,0,3.094-4.8,0-4.8H63.323c-3.088,0-3.093,4.8,0,4.8Z"/><path class="d" d="M290.163,243.367a174.842,174.842,0,0,1,2.354,38.459c-.226,6.123-.6,12.245-1.041,18.355a100.634,100.634,0,0,1-1.357,11.237c-1.38,7.5-3.735,15.5-9.46,20.628a16.682,16.682,0,0,1-10.033,4.152,23.3,23.3,0,0,1-12.634-3.316c-9.67-5.387-17.314-14.543-23.127-23.8-1.639-2.61-5.794-.2-4.145,2.422,5.675,9.041,12.883,17.621,21.78,23.633,8.182,5.528,18.721,8.228,27.775,3.064,7.633-4.354,11.5-12.987,13.539-21.163,2.378-9.53,2.718-19.511,3.234-29.273.807-15.3.55-30.563-2.257-45.67a2.421,2.421,0,0,0-2.952-1.676,2.451,2.451,0,0,0-1.676,2.952Z"/><path class="b" d="M180.633,172.993a36.655,36.655,0,0,0-4.774-5.4,85.66,85.66,0,0,1-24.725,17.231c-.512.232-1.083.516-1.248,1.053a1.984,1.984,0,0,0,.286,1.4h-8.48a1.989,1.989,0,0,0,.285-1.4c-.165-.537-.736-.821-1.247-1.053a85.66,85.66,0,0,1-24.725-17.231,42.282,42.282,0,0,0-8.617,11.642s-.126.244-.364.671c2.58,7.606,6.6,18.543,11.1,31.43,9.265,26.546,21.963,56.17,28.8,70.927l1.779,3.758c7.531-16.974,17.137-43.143,25.084-69.816,4.421-14.839,7.8-31.825,9.235-39.586C182.29,175.392,181.5,174.175,180.633,172.993Z"/><path class="d" d="M172.664,158.974a87.736,87.736,0,0,0,1.041,11.544,60.565,60.565,0,0,0,1.392,7.913,10.581,10.581,0,0,0,4.854,6.255,16.62,16.62,0,0,0,2.24,1.052c.11.044.992.36.387.141-.5-.181-.043-.017.076.037.784.356,1.569.709,2.352,1.067,1.879.858,3.75,1.738,5.639,2.576a2.477,2.477,0,0,0,3.283-.861,2.418,2.418,0,0,0-.861-3.284c-2-.889-3.99-1.824-5.986-2.735-2.038-.93-4.606-1.615-6.153-3.274a5.981,5.981,0,0,1-1.37-2.883c-.325-1.34-.473-2.717-.695-4.076a94.566,94.566,0,0,1-1.4-13.472c-.059-3.085-4.86-3.095-4.8,0Z"/><path class="d" d="M105.974,187.554c2.1-.865,4.329-1.444,6.374-2.446a10.63,10.63,0,0,0,5.438-6.063,40.26,40.26,0,0,0,1.389-7.284,106.465,106.465,0,0,0,1.181-11.9c.131-3.089-4.669-3.083-4.8,0a95.186,95.186,0,0,1-.975,10.4,55.748,55.748,0,0,1-1.187,6.765,5.659,5.659,0,0,1-.983,2.1,7.281,7.281,0,0,1-2.485,1.839c-1.667.81-3.514,1.258-5.228,1.963a2.476,2.476,0,0,0-1.676,2.952,2.415,2.415,0,0,0,2.952,1.676Z"/><path class="e" d="M156.327,200.083c.424-1.3.764-2.494,1.063-3.644-.719-.873-1.43-1.737-2.1-2.562a79.739,79.739,0,0,1-5.114-6.6,1.984,1.984,0,0,1-.286-1.4c0-.015.017-.026.023-.041l-7.946.014c0,.01.011.017.014.027a1.989,1.989,0,0,1-.285,1.4,80.226,80.226,0,0,1-5.114,6.6l-1.023,1.248c.371,1.894.749,3.787,1.191,5.681q.18.768.374,1.537a13.578,13.578,0,0,1,.559,3.407c-.006.732-2.708,22.909-5.186,43.178,5.534,13.508,10.805,25.511,14.428,33.335,0,0,.667,1.439,1.76,3.8,3.981-8.969,8.544-20.525,13.136-33.356-3.1-20.8-6.835-45.395-6.818-46.576A20.606,20.606,0,0,1,156.327,200.083Z"/><path class="d" d="M138.467,208c5.341,0,10.682-.118,16.022-.12a2.4,2.4,0,0,0,0-4.8c-5.34,0-10.681.118-16.022.12a2.4,2.4,0,0,0,0,4.8Z"/><path class="d" d="M133.242,195.768c.446,2.284.906,4.567,1.464,6.827a11.243,11.243,0,0,1,.55,3.418c-.1,1.563-.345,3.128-.528,4.683q-1.245,10.6-2.556,21.2-.939,7.711-1.886,15.422a2.413,2.413,0,0,0,2.4,2.4,2.46,2.46,0,0,0,2.4-2.4q1.609-13.129,3.2-26.262c.6-4.941,1.359-9.9,1.75-14.864a12.911,12.911,0,0,0-.5-4.071c-.624-2.531-1.168-5.073-1.668-7.631a2.4,2.4,0,1,0-4.628,1.276Z"/><path class="d" d="M163.85,250.182q-2-13.383-4-26.764-.78-5.244-1.544-10.491-.279-1.923-.549-3.847l-.093-.679c-.034-.243-.107-.8-.031-.218-.048-.361-.1-.722-.14-1.083-.412-3.394,1.362-6.792,2.217-10.012.794-2.989-3.835-4.264-4.628-1.276-.914,3.439-2.76,7.131-2.45,10.761.169,1.981.519,3.958.8,5.925,1.1,7.676,2.256,15.344,3.4,23.013q1.194,7.972,2.387,15.947a2.415,2.415,0,0,0,2.952,1.676,2.46,2.46,0,0,0,1.676-2.952Z"/><path class="d" d="M149.906,183.44q-3.971,0-7.94.01a2.4,2.4,0,0,0,0,4.8q3.969-.015,7.94-.01a2.4,2.4,0,0,0,0-4.8Z"/><path class="b" d="M165.471,206.229c7.939-7.891,13.139-17.448,19-26.994a42.278,42.278,0,0,0-8.616-11.642,85.66,85.66,0,0,1-24.725,17.231c-.512.232-1.083.516-1.248,1.053a1.984,1.984,0,0,0,.286,1.4,79.739,79.739,0,0,0,5.114,6.6C158.765,198.135,163.134,203.352,165.471,206.229Z"/><path class="b" d="M126.393,206.229c-7.94-7.891-13.14-17.448-19-26.994a42.282,42.282,0,0,1,8.617-11.642,85.66,85.66,0,0,0,24.725,17.231c.511.232,1.082.516,1.247,1.053a1.989,1.989,0,0,1-.285,1.4,80.226,80.226,0,0,1-5.114,6.6C133.1,198.135,128.729,203.352,126.393,206.229Z"/><path class="d" d="M167.168,207.926c6.025-6.032,10.7-13.186,15.11-20.439,1.116-1.836,2.22-3.678,3.337-5.514.625-1.028,1.529-2.09,1.175-3.376a12.928,12.928,0,0,0-1.439-2.754,43.233,43.233,0,0,0-7.795-9.947,2.441,2.441,0,0,0-3.394,0,82.79,82.79,0,0,1-20.524,15.045c-1.679.875-4.017,1.515-5.305,2.946-1.373,1.527-.915,3.646.144,5.195,2.133,3.119,4.693,5.993,7.093,8.905,2.732,3.315,5.493,6.606,8.2,9.939a2.417,2.417,0,0,0,3.394,0,2.456,2.456,0,0,0,0-3.394c-2.755-3.388-5.563-6.733-8.34-10.1-1.506-1.828-3.01-3.659-4.484-5.513-.508-.639-2.162-2.226-2.058-3.038l-.327,1.212-.226.124a3.917,3.917,0,0,1,.457-.243c.233-.116.474-.219.711-.328q.84-.39,1.671-.8,1.792-.885,3.538-1.861,3.507-1.954,6.82-4.23a87.357,87.357,0,0,0,12.626-10.461h-3.394a40.984,40.984,0,0,1,8.241,11.156v-2.423c-5.655,9.219-10.924,18.794-18.629,26.509C161.588,206.72,164.981,210.115,167.168,207.926Z"/><path class="d" d="M128.09,204.532c-7.706-7.715-12.974-17.29-18.63-26.509v2.423A41.008,41.008,0,0,1,117.7,169.29h-3.395a87.419,87.419,0,0,0,12.627,10.461q3.222,2.209,6.633,4.126,1.746.979,3.539,1.872.831.414,1.672.807c.246.115.5.223.74.341a3.9,3.9,0,0,1,.462.231q.339.189-.075-.039l-.328-1.212c.1.785-1.442,2.263-1.936,2.885-1.513,1.907-3.058,3.788-4.606,5.666-2.776,3.371-5.584,6.716-8.339,10.1a2.471,2.471,0,0,0,0,3.394,2.418,2.418,0,0,0,3.394,0c4.9-6.029,10.073-11.869,14.742-18.084a5.861,5.861,0,0,0,1.545-3.965c-.182-2.5-2.768-3.244-4.662-4.18a84.824,84.824,0,0,1-10.9-6.466A80.328,80.328,0,0,1,117.7,165.9a2.445,2.445,0,0,0-3.395,0,43.277,43.277,0,0,0-7.794,9.947,12.934,12.934,0,0,0-1.439,2.754c-.353,1.28.553,2.353,1.175,3.376,1.117,1.836,2.221,3.678,3.337,5.514,4.409,7.253,9.085,14.407,15.11,20.439C126.882,210.114,130.277,206.721,128.09,204.532Z"/><path class="d" d="M60.662,297.953q1.425,17.825,2.634,35.667c.6,8.7,1.518,17.457.863,26.181-.576,7.675-1.614,15.331-2.428,22.985a2.415,2.415,0,0,0,2.4,2.4,2.456,2.456,0,0,0,2.4-2.4c1.266-11.911,3.223-23.858,2.455-35.859q-.894-13.994-1.929-27.977-.762-10.5-1.595-21a2.461,2.461,0,0,0-2.4-2.4,2.418,2.418,0,0,0-2.4,2.4Z"/><path class="d" d="M48.328,207.212c1.576,11.02,3.464,22,5.24,32.986,1.783,11.032,3.677,22.147,4.867,33.036.9,8.223,1.566,16.473,2.227,24.719a2.46,2.46,0,0,0,2.4,2.4,2.419,2.419,0,0,0,2.4-2.4c-1.027-12.811-2.153-25.59-4.026-38.308-1.8-12.19-3.835-24.344-5.8-36.508-.926-5.728-1.856-11.457-2.677-17.2a2.415,2.415,0,0,0-2.952-1.677,2.464,2.464,0,0,0-1.677,2.953Z"/><path class="d" d="M186,179.747a506.5,506.5,0,0,1,46.815,22.763,52.713,52.713,0,0,0,6.579,3.149,21.728,21.728,0,0,1,5.831,2.823,2.415,2.415,0,0,0,3.284-.861,2.462,2.462,0,0,0-.861-3.284c-3.182-2.437-7.353-3.228-10.851-5.127q-5.82-3.159-11.676-6.251c-7.658-4.025-15.4-7.891-23.265-11.494q-7.229-3.312-14.58-6.346a2.414,2.414,0,0,0-2.952,1.676A2.46,2.46,0,0,0,186,179.747Z"/><path class="d" d="M107.614,173.822a507.809,507.809,0,0,0-50.238,24.063,51.939,51.939,0,0,1-6.508,3.215,25.425,25.425,0,0,0-6.789,3.237,2.48,2.48,0,0,0-.861,3.284,2.416,2.416,0,0,0,3.284.861,20.173,20.173,0,0,1,5.454-2.683,47.5,47.5,0,0,0,6.134-2.844q5.862-3.179,11.764-6.285c7.886-4.13,15.863-8.085,23.972-11.759q7.467-3.382,15.064-6.461a2.476,2.476,0,0,0,1.677-2.952,2.416,2.416,0,0,0-2.953-1.676Z"/><path class="d" d="M242.827,205.41q-2.881,18.21-5.623,36.441c-1.657,11.071-3.42,22.158-4.537,33.3-1.09,10.877-1.839,21.79-2.584,32.694q-1.1,16.142-2.052,32.294-.261,4.364-.519,8.728c-.536,9.108.919,18.157,1.866,27.19q.357,3.4.719,6.8a2.47,2.47,0,0,0,2.4,2.4,2.416,2.416,0,0,0,2.4-2.4c-.986-9.264-2.453-18.59-2.688-27.911-.1-3.963.212-7.918.447-11.871q.9-15.2,1.9-30.4c.754-11.332,1.53-22.668,2.57-33.978.955-10.395,2.437-20.245,3.968-30.616q2.813-19.042,5.833-38.055.263-1.668.527-3.334a2.475,2.475,0,0,0-1.676-2.952,2.418,2.418,0,0,0-2.953,1.676Z"/><path class="a" d="M139.2,314.489c0-10.253,3-14.66,5.618-20.173,7.865-15.772,19.574-46.59,28.965-78.111,5.1-17.111,8.809-36.106,9.754-41.415,1.033.611,1.773,1.039,1.773,1.039,5.457,3.157,25.731,20.069,24.266,22.1-2.018,2.805-8.361,9.988-11.741,13.6,4.163,3.58,8.451,7.837,8.815,9.917.488,2.787-35.162,61.685-42.276,70.7Z"/><path class="d" d="M148.815,386.063c-1.919-15.408-3.547-30.854-5.05-46.308-.571-5.877-1.125-11.755-1.622-17.639a72.016,72.016,0,0,1-.455-10.533,30.973,30.973,0,0,1,2.229-9.833c.96-2.348,2.378-4.988,3.565-7.421,3.027-6.2,5.718-12.576,8.305-18.975,6.884-17.031,12.908-34.423,18.328-51.972a415.824,415.824,0,0,0,11.435-46.3c.138-.742.274-1.484.4-2.228a2.469,2.469,0,0,0-1.676-2.952,2.421,2.421,0,0,0-2.953,1.676,367.78,367.78,0,0,1-9.726,41.556c-5.378,18.17-11.491,36.155-18.4,53.8-2.621,6.7-5.358,13.352-8.392,19.872-2.515,5.405-5.734,10.669-7.06,16.534a44.87,44.87,0,0,0-.667,13.578c.409,5.231.894,10.456,1.388,15.679,1.451,15.346,3.045,30.682,4.876,45.987q.327,2.738.668,5.474a2.477,2.477,0,0,0,2.4,2.4,2.414,2.414,0,0,0,2.4-2.4Z"/><path class="d" d="M184.1,177.9c.987.577,1.926,1.236,2.853,1.9,1.256.9,2.426,1.8,3.413,2.573q4.459,3.5,8.707,7.263a78.464,78.464,0,0,1,7,6.787c.189.215.371.435.556.653.446.524-.185-.31.175.223a10.633,10.633,0,0,0,.6.976c-.4-.461-.151-.466-.088-.126-.044-.238-.1-1.412.182-1.433-.025,0-.66.874-.382.517-.322.415-.654.823-.986,1.23-3.191,3.9-6.556,7.682-10,11.364a2.427,2.427,0,0,0,0,3.394,61.149,61.149,0,0,1,6.708,6.5,18.893,18.893,0,0,1,1.44,2.089c-.151-.255.043.222.051.265-.14-.761-.081-.777-.082-.541,0-.018.23-.779.045-.4a4.061,4.061,0,0,0-.159.5c-.035.108-.088.211-.124.319-.151.453.293-.638.022-.054-.334.722-.67,1.441-1.028,2.151-2.494,4.955-5.295,9.763-8.075,14.561q-11.357,19.6-23.519,38.731c-1.774,2.788-3.564,5.567-5.4,8.313-.674,1.006-1.354,2.009-2.051,3q-.417.594-.845,1.181c-.123.168-.248.336-.373.5-.463.626.2-.249-.068.092a2.476,2.476,0,0,0,0,3.394,2.417,2.417,0,0,0,3.394,0c3-3.822,5.6-7.984,8.218-12.071,4.09-6.374,8.077-12.816,12.019-19.283,7.131-11.7,14.447-23.429,20.67-35.649a20.715,20.715,0,0,0,1.968-4.5c.449-1.962-.911-3.759-2.053-5.209a54.573,54.573,0,0,0-7.361-7.3v3.394c3.31-3.541,6.539-7.175,9.626-10.912,1.044-1.263,2.874-2.855,2.893-4.617a4.984,4.984,0,0,0-1.141-2.872,47.18,47.18,0,0,0-6.63-6.945c-3-2.747-6.109-5.377-9.285-7.917a72.785,72.785,0,0,0-8.473-6.207c-2.673-1.561-5.092,2.585-2.423,4.145Z"/><path class="a" d="M133.79,291.485c-9.391-8.983-50.426-66.7-49.925-69.558.349-2,4.219-5.947,8.217-9.455-3.62-3.638-9.063-11.229-11.223-14.161-1.528-2.075,18.281-19.466,23.887-22.709l.729-.422c2.285,7.355,7.107,20.274,12.65,36.156,9.265,26.546,21.963,56.17,28.8,70.927Z"/><path class="d" d="M102.869,175.907c1.694,5.621,3.845,11.108,5.887,16.608,2.986,8.044,5.837,16.133,8.737,24.209,5.723,15.939,12.054,31.663,18.712,47.233,2.8,6.543,5.656,13.06,8.644,19.517a2.419,2.419,0,0,0,3.284.861,2.455,2.455,0,0,0,.861-3.283c-5.881-12.71-11.339-25.623-16.563-38.615-6.458-16.063-12.086-32.408-18.1-48.637-2.353-6.353-4.88-12.679-6.837-19.169-.889-2.95-5.523-1.693-4.628,1.276Z"/><path class="d" d="M103.535,173.53a59.954,59.954,0,0,0-7.448,5.528q-4.619,3.777-8.976,7.864a63.8,63.8,0,0,0-6.962,7.322,8.319,8.319,0,0,0-1.648,2.863c-.441,1.712.59,2.83,1.534,4.118a114.752,114.752,0,0,0,10.35,12.945v-3.395a51.7,51.7,0,0,0-7.056,7.2c-1.017,1.331-2.2,3.041-1.763,4.808a14.946,14.946,0,0,0,1.774,3.678c2.844,4.9,6.075,9.578,9.266,14.249,8.987,13.15,18.307,26.1,28.037,38.714,3.61,4.678,7.175,9.647,11.45,13.756,2.228,2.141,5.626-1.249,3.394-3.394a103.717,103.717,0,0,1-9.391-11.1c-1.994-2.55-4.1-5.316-6.26-8.194q-3.559-4.743-7.049-9.538c-8.3-11.377-16.64-22.835-24.044-34.821-.548-.888-1.089-1.781-1.6-2.69-.207-.368-.412-.739-.6-1.115-.072-.142-.139-.287-.211-.428-.163-.315-.055-.576.051.148a2.319,2.319,0,0,0-.183-.538c-.166-.137.068.767.068.514a.443.443,0,0,1,0-.052q-.158.979-.041.413c-.008,0,.171-.491-.018-.027a5.733,5.733,0,0,1,.523-.921c1.807-2.785,4.589-5.092,7.055-7.266a2.429,2.429,0,0,0,0-3.395,96.112,96.112,0,0,1-8.553-10.55q-.829-1.124-1.654-2.252c-.088-.121-.537-.884-.641-.874.156-.014.236,1.188.247.851-.027.826-.054.5.029.2-.222.8-.122.252.03.023.117-.175.22-.36.338-.535s.679-.9.257-.371c4.2-5.311,9.642-9.84,14.835-14.143q1.089-.9,2.2-1.787c.919-.733,1.021-.814,1.877-1.455a34.209,34.209,0,0,1,3.217-2.206c2.665-1.559.252-5.71-2.423-4.145Z"/><path class="b" d="M172.4,275.479C131,292.8,77.766,314.866,35.321,332.618c12.308,29.429,36.205,86.484,44.417,106.12,0,0,.006,0,.01,0,53.7-22.347,91.914-38.727,136.952-57.562-8.872-21.215-35.514-84.706-44.293-105.7Z"/><path class="d" d="M171.765,273.165q-26.25,10.977-52.522,21.9-27.635,11.5-55.268,23.011Q49.326,324.182,34.683,330.3c-1.074.449-2.226,1.636-1.676,2.952q8.817,21.082,17.643,42.16,9.337,22.3,18.674,44.6,3.44,8.217,6.878,16.436a29.647,29.647,0,0,0,1.463,3.493c.914,1.562,2.492,1.2,3.872.628l4.334-1.805q7.82-3.26,15.636-6.53,28.237-11.815,56.427-23.743,26.329-11.116,52.678-22.189l6.726-2.816c1.075-.449,2.227-1.637,1.677-2.952q-8.334-19.927-16.694-39.845-10.016-23.888-20.029-47.776-2.237-5.337-4.471-10.673-.929-2.217-1.856-4.433c-.676-1.615-1.211-3.961-2.924-4.65a2.414,2.414,0,0,0-2.952,1.676,2.458,2.458,0,0,0,1.676,2.952l0,0-1.676-1.676q8.175,19.548,16.376,39.086,9.936,23.7,19.869,47.4,4.028,9.607,8.048,19.217l1.676-2.952Q190.507,389.554,165,400.35q-26.175,11.05-52.364,22.067-16.751,7.029-33.521,14.01h1.276l-.01,0,1.676,1.677q-7.563-18.086-15.136-36.165-9.873-23.582-19.744-47.163-4.77-11.4-9.536-22.792l-1.676,2.952Q62.581,323.8,89.226,312.72q27.531-11.461,55.06-22.924,14.38-5.994,28.755-12a2.48,2.48,0,0,0,1.676-2.952A2.413,2.413,0,0,0,171.765,273.165Z"/><path class="b" d="M184.312,379.913c-1.494-2.545-4.534-3.158-7.053-4.406-5.817-2.881-11.851-5.235-17.664-8.258-2.88-1.5-5.4-4.442-8.573-5.234-2.993-.748-7.306.018-10.349.322-5.469.547-13.925,2.213-19.233,1.506l-.707-.117c-6.715,10.333-13.8,20.43-20.89,30.55l-.156.778A75.239,75.239,0,0,1,114.5,408.926c3.245,4.363,5.979,9.454,10.09,12.934,3.519,2.979,11.36,2.982,11.94,2.829,4.353-1.147,12.468-2.725,14.219-6.6,3.379,1.345,5.643,2.111,8.007.456,2.6-1.822,3.519-3.474,2.783-5.871a8.583,8.583,0,0,0,6.557,2.679c3.812.044,8.627-2.925,8.63-7.212,0-3.667-4.3-8.234-6.416-11.122-2.386-3.252-6.218-7.607-9.043-11.5,3.367,2.385,8.005,2.417,11.873,3.851,3.6,1.334,7,2.618,10.249-.477C185.778,386.622,185.94,382.684,184.312,379.913Z"/><path class="d" d="M121.44,366.243c5.822.717,11.814-.62,17.578-1.32a75.405,75.405,0,0,1,8.865-.825,8.221,8.221,0,0,1,3.691.66,24.622,24.622,0,0,1,3.906,2.638,47.6,47.6,0,0,0,8.918,4.836c3.382,1.548,6.8,3.015,10.155,4.621,1.442.69,2.885,1.333,4.354,1.962a7.624,7.624,0,0,1,3.08,1.926,5.228,5.228,0,0,1,.186,5.945c-2.065,2.784-5.366,1.477-8.019.508-3.412-1.247-7.263-1.392-10.518-3.04-2.749-1.391-5.182,2.748-2.422,4.145,3.335,1.688,7,1.993,10.517,3.12,3.286,1.053,6.626,2.586,10.092,1.256,7.126-2.733,7.952-12.839,1.622-16.924a28.605,28.605,0,0,0-4.172-1.944c-1.79-.782-3.529-1.691-5.307-2.5-3.822-1.743-7.688-3.393-11.452-5.261a29.278,29.278,0,0,1-4.612-2.793,24.442,24.442,0,0,0-4.248-2.8c-3.287-1.523-6.9-1.211-10.4-.806-3.558.412-7.105.879-10.659,1.326a45.5,45.5,0,0,1-11.152.475,2.413,2.413,0,0,0-2.4,2.4,2.46,2.46,0,0,0,2.4,2.4Z"/><path class="d" d="M159.722,387.438c4.062,5.425,8.7,10.455,12.524,16.058,1.422,2.086,2.922,4.482,1.452,6.867a5.906,5.906,0,0,1-6.532,2.282c-2.788-.695-4.477-3.162-6.06-5.194a2.414,2.414,0,0,0-3.394,0,2.461,2.461,0,0,0,0,3.395c1.853,2.379,3.959,4.878,7.055,6.071a11.118,11.118,0,0,0,10.949-1.689,9.03,9.03,0,0,0,2.876-9.985c-1.282-3.509-3.818-6.272-6.034-9.207-2.819-3.735-5.886-7.275-8.691-11.021a2.476,2.476,0,0,0-3.284-.861,2.418,2.418,0,0,0-.861,3.284Z"/><path class="d" d="M159.539,412.675c0,.012.154.574.113.309-.045-.287-.01.331-.021.4.045-.276-.185.651-.214.723a5.676,5.676,0,0,1-1.868,2.362c-1.853,1.361-4.279.046-6.158-.7a2.4,2.4,0,0,0-2.71,1.1c-.606,1.242-1.91,2.02-3.474,2.73a35.492,35.492,0,0,1-5.654,1.841c-.876.23-1.755.445-2.632.666a7.127,7.127,0,0,1-1.068.272c.052.062.837-.04.061-.048a30.306,30.306,0,0,1-4.05-.268,14.062,14.062,0,0,1-5.157-1.633,19.951,19.951,0,0,1-4.681-4.917c-2.879-3.886-5.325-8.036-8.627-11.6a75.981,75.981,0,0,0-12.5-10.939,2.4,2.4,0,1,0-2.423,4.144,70.542,70.542,0,0,1,11.409,10.059c3.45,3.7,5.916,8.15,9.121,12.226a20.437,20.437,0,0,0,5.526,5.314,17.913,17.913,0,0,0,6.057,1.972,29.509,29.509,0,0,0,5.181.442,19.693,19.693,0,0,0,4.446-.906c4.3-1.1,10.467-2.535,12.61-6.936l-2.71,1.1a16.848,16.848,0,0,0,5.518,1.479,7.705,7.705,0,0,0,5.136-1.869c2.334-1.877,4.538-5.522,3.4-8.611a2.465,2.465,0,0,0-2.952-1.676,2.419,2.419,0,0,0-1.676,2.952Z"/><path class="a" d="M48.8,308.288c18.139,11.385,69.27,46.445,74.983,50.682-8.321,13.139-17.319,25.84-26.266,38.622-18.7-11.026-42.206-25.884-64.025-40.695-9.464-6.425-22.537-13.534-28.525-25.809Z"/><path class="d" d="M47.592,310.36c10.69,6.714,21.143,13.816,31.605,20.877q16.971,11.455,33.819,23.094c3.2,2.215,6.431,4.4,9.559,6.712l-.861-3.284c-8.339,13.153-17.338,25.867-26.266,38.622l3.283-.861c-16.437-9.7-32.594-19.881-48.544-30.361-7.528-4.945-14.987-10-22.5-14.962-6.319-4.177-12.783-8.725-17.332-14.89A28.067,28.067,0,0,1,5.3,324.82a26.332,26.332,0,0,1,.045-10.445,105.177,105.177,0,0,1,3.311-12.2c1.249-4,2.406-8.012,3.564-12.035,4.13-14.354,9.014-28.512,14.071-42.562,2.345-6.514,4.748-13.01,7.327-19.436,2.655-6.612,6.165-13.276,11.621-18.022q.35-.306.712-.6c-.353.283.284-.208.363-.264a13.783,13.783,0,0,1,1.243-.781c2.7-1.5.284-5.645-2.423-4.145a23.973,23.973,0,0,0-6.162,5.283,50.277,50.277,0,0,0-6.721,9.936c-3.394,6.517-5.785,13.658-8.326,20.541-5.416,14.673-10.537,29.485-15.06,44.46-1.019,3.373-1.935,6.775-2.934,10.154-1.309,4.424-2.8,8.795-4.015,13.248A46.5,46.5,0,0,0,0,319.9a27.964,27.964,0,0,0,2.727,12.037c3.544,7.55,9.859,13.345,16.473,18.207,3.093,2.274,6.316,4.362,9.528,6.463,3.847,2.515,7.633,5.123,11.457,7.674q24.932,16.637,50.623,32.107,2.745,1.646,5.5,3.271a2.457,2.457,0,0,0,3.283-.861c8.929-12.754,17.927-25.469,26.266-38.621A2.459,2.459,0,0,0,125,356.9c-7.407-5.484-15.134-10.573-22.738-15.776q-18.066-12.363-36.28-24.51c-5.29-3.513-10.587-7.019-15.964-10.4-2.624-1.648-5.036,2.5-2.423,4.144Z"/><path class="d" d="M203.694,93.087a5.975,5.975,0,0,1,8.343.739c1.217,1.557,1.285,3.849,1.345,5.73a30.3,30.3,0,0,1-.384,6.069c-1.287,7.478-5.254,16.6-13.587,18.02a2.421,2.421,0,0,0-1.676,2.953,2.455,2.455,0,0,0,2.952,1.676c8.465-1.446,13.5-9.381,15.883-17a35.623,35.623,0,0,0,1.571-12.619c-.244-4.179-1.451-8.123-5.293-10.32A10.948,10.948,0,0,0,200.3,89.693a2.421,2.421,0,0,0,0,3.394,2.449,2.449,0,0,0,3.394,0Z"/><path class="d" d="M197.562,119.669a28.736,28.736,0,0,1-1.386,7.322c-.26.865-.545,1.721-.832,2.577-.085.251-.172.5-.259.752-.035.1-.079.194-.116.292-.152.412.236-.516.026-.063a61.041,61.041,0,0,1-3.708,6.783,67.377,67.377,0,0,1-15.107,17.424,28.715,28.715,0,0,1-11.157,5.639c-3.009.691-1.735,5.32,1.277,4.629,8.367-1.92,15.38-7.93,20.916-14.228a73.174,73.174,0,0,0,11.737-17.407,36.734,36.734,0,0,0,3.409-13.72c.1-3.09-4.7-3.086-4.8,0Z"/><path class="d" d="M90.3,89.693A10.909,10.909,0,0,0,79.348,87.6c-4.129,1.6-6.209,5.038-6.736,9.314a34.618,34.618,0,0,0,6.049,23.9,17.954,17.954,0,0,0,11.248,7.458,2.47,2.47,0,0,0,2.952-1.676,2.42,2.42,0,0,0-1.676-2.953c-8.333-1.423-12.3-10.542-13.586-18.02a30.376,30.376,0,0,1-.385-6.069c.059-1.89.135-4.164,1.345-5.73a5.971,5.971,0,0,1,8.343-.739,2.463,2.463,0,0,0,3.394,0,2.421,2.421,0,0,0,0-3.394Z"/><path class="d" d="M88.573,118.819a67.827,67.827,0,0,0,8.646,23.98c4.9,7.983,11.988,15.2,20.333,19.572a39.375,39.375,0,0,0,14.3,4.3,2.415,2.415,0,0,0,2.4-2.4,2.454,2.454,0,0,0-2.4-2.4c-17.045-1.762-30.3-17.046-35.635-32.408A75.738,75.738,0,0,1,93.2,117.543a2.42,2.42,0,0,0-2.952-1.676,2.454,2.454,0,0,0-1.676,2.952Z"/><path class="b" d="M221.927,190.181a5.47,5.47,0,0,1,4.187,2.638l80.492,21.024c2.172-2.979,4.8-6.169,8.454-6.612a6.867,6.867,0,0,1,7.616,7.837,12.756,12.756,0,0,1-2.72,5.471q-1.718,2.325-3.6,4.525a6.075,6.075,0,0,1,4.775,2.549,8.266,8.266,0,0,1,1.288,5.439,11.559,11.559,0,0,1-.515,2.555,27.24,27.24,0,0,1-4.084,7.212l-3.914,5.516a12.242,12.242,0,0,1-3.843,3.966,4.985,4.985,0,0,1,2.492,2.214,7.666,7.666,0,0,1,.674,3.948,7.229,7.229,0,0,1-2.3,4.275c-.967.852-5.831,5.012-7.6,5.945a6.672,6.672,0,0,1-5.558.713,5.4,5.4,0,0,1-1.83-1.307l-74.079-45.513c-1.927-4.709-5.444-11.912-8.54-18.012-2.079-4.1-2.035-10.3,1.706-12.862A9.694,9.694,0,0,1,221.927,190.181Z"/><path class="b" d="M216.371,269.036c2.044-14.8,11.425-83.8,13.5-98.822a2.132,2.132,0,0,1,2.414-1.82L308.1,179.039a2.134,2.134,0,0,1,1.822,2.41c-3.958,28.536-10.09,72.707-13.7,98.554a2.138,2.138,0,0,1-2.412,1.827c-13.121-1.821-63.081-8.652-75.606-10.386A2.134,2.134,0,0,1,216.371,269.036Z"/><path class="d" d="M246.858,220.9l-3.469-.494-1.668-.238-.8-.112c-.114-.017-.229-.029-.342-.049-.254-.045-.447-.2.032.075-.342-.2.13.11.142.15-.012-.042-.4-.381-.088-.056.284.294-.023-.215.105.179.143.442.022-.076,0-.1.034.039.05.621.061.216-.017.61-.053.373-.028.2l.123-.866q.254-1.8.493-3.6l.084-.629.019-.15c.027-.2.026-.2,0,.029l-.022.175c.058-.192.047-.186-.033.016-.256.335.079,0,.07-.083,0,.042-.386.453-.1.179-.393.382-.315.223-.152.141q-.554.209-.191.09l.135-.031-.357.057q.3.015-.018-.02l-.161-.024.259.037.8.114,1.771.253c1.142.163,2.285.365,3.431.495.389.044-.147-.014-.176-.1-.005-.016.214.14.236.141l-.277-.2q.195.213-.013-.037l-.106-.135q.183.332-.064-.208c0,.018.079.276.071.266-.16-.2-.044-.525-.061-.217.043-.79-.006.061-.034.259l-.5,3.542c-.036.256-.07.513-.108.769-.013.09-.04.2-.046.287-.03.454.238-.418.035-.054-.233.416.29-.343.076-.115-.187.2.462-.28.1-.1.543-.277.326-.126.126-.078s-.089.026.291-.043a1.836,1.836,0,0,1-.287-.017,2.407,2.407,0,0,0-2.4,2.4,2.466,2.466,0,0,0,2.4,2.4,4.163,4.163,0,0,0,4.248-2.982,13.21,13.21,0,0,0,.26-1.687l.289-2.059c.23-1.633.65-3.277-.256-4.788a4.228,4.228,0,0,0-2.263-1.789,11.482,11.482,0,0,0-2.084-.348l-4.275-.611a5.06,5.06,0,0,0-2.583.085,4.2,4.2,0,0,0-2.3,1.943,7.056,7.056,0,0,0-.589,2.507c-.015.106-.029.213-.043.319.092-.7.014-.11,0,.026-.047.343-.093.685-.141,1.028q-.126.914-.256,1.828a5.964,5.964,0,0,0-.007,2.707,4.2,4.2,0,0,0,1.981,2.433,7.138,7.138,0,0,0,2.523.609q2.433.347,4.865.693a2.638,2.638,0,0,0,1.849-.242,2.443,2.443,0,0,0,1.1-1.434C248.792,222.714,248.187,221.084,246.858,220.9Z"/><path class="d" d="M308.682,215.057c1.755-2.4,4.3-5.842,7.7-5.458a4.5,4.5,0,0,1,3.71,2.991c.658,1.887-.124,3.624-1.146,5.206a63.438,63.438,0,0,1-8.193,9.822,79.551,79.551,0,0,1-9.931,8.566,2.47,2.47,0,0,0-.861,3.284,2.417,2.417,0,0,0,3.283.861A86.238,86.238,0,0,0,321.5,222.444c2.529-3.351,4.661-7.226,3.089-11.5a9.334,9.334,0,0,0-10.173-6.023c-4.426.672-7.4,4.315-9.882,7.715a2.417,2.417,0,0,0,.861,3.284,2.454,2.454,0,0,0,3.283-.861Z"/><path class="d" d="M308.855,254.381c1.094.5,1.484.837,1.782,1.849a4.977,4.977,0,0,1,.241,1.668,5.172,5.172,0,0,1-.249,1.188c-.555,1.458-1.866,2.385-3.109,3.428q-1.046.877-2.108,1.733c-.354.284-.71.567-1.069.845.437-.338-.228.17-.305.228-.149.111-.3.221-.449.33a10.654,10.654,0,0,1-2.029,1.236,7.351,7.351,0,0,1-1.412.425,3.591,3.591,0,0,1-.891.011c.149.018-1-.31-.346-.028a2.481,2.481,0,0,0-3.283.861,2.417,2.417,0,0,0,.861,3.284,9.153,9.153,0,0,0,8.256-.8,33.469,33.469,0,0,0,4.143-3.067q1.77-1.424,3.487-2.91a9.553,9.553,0,0,0,3.3-6.625,7.991,7.991,0,0,0-4.392-7.8,2.473,2.473,0,0,0-3.284.861,2.421,2.421,0,0,0,.861,3.284Z"/><path class="d" d="M316.722,227.474c2.941.342,3.659,3.84,3.2,6.236-.675,3.5-3.143,6.443-5.15,9.276-1.094,1.545-2.175,3.1-3.286,4.634a7.185,7.185,0,0,1-2.962,2.757c-2.763,1.025-4.891-1.359-5.415-3.848-.636-3.021-5.264-1.743-4.629,1.276a9.414,9.414,0,0,0,6.794,7.351c3.784.827,7.056-.868,9.373-3.811,2.431-3.086,4.717-6.383,6.873-9.666,2.065-3.145,3.7-6.831,3.268-10.678a8.992,8.992,0,0,0-8.063-8.327,2.415,2.415,0,0,0-2.4,2.4,2.457,2.457,0,0,0,2.4,2.4Z"/><path class="d" d="M303.492,245.035l.138-.347c.12-.3-.032-.068-.029.066a2.211,2.211,0,0,1,.294-.655q.312-.671.661-1.323c.435-.816.909-1.61,1.4-2.392,1-1.6,2.052-3.169,3.069-4.759a2.422,2.422,0,0,0-.861-3.284,2.453,2.453,0,0,0-3.284.861c-2.195,3.433-4.518,6.742-6.017,10.557a2.409,2.409,0,0,0,1.676,2.952,2.468,2.468,0,0,0,2.952-1.676Z"/><path class="d" d="M228.186,191.608c-3.346-6.23-13.653-4.534-16.989.733-1.788,2.825-1.937,6.455-1.287,9.646.733,3.595,2.942,6.926,4.539,10.188,1.782,3.638,3.563,7.292,5.1,11.039a2.478,2.478,0,0,0,2.952,1.677,2.417,2.417,0,0,0,1.676-2.953c-1.507-3.662-3.19-7.248-4.917-10.81q-1.431-2.949-2.906-5.878a16.856,16.856,0,0,1-1.883-4.866c-.438-2.66.032-5.713,2.541-7.081a7.23,7.23,0,0,1,4.3-.8,3.355,3.355,0,0,1,2.724,1.528c1.462,2.723,5.608.3,4.144-2.422Z"/><path class="d" d="M218.686,269.674q1.785-12.936,3.539-25.875,2.576-18.873,5.148-37.748,2.093-15.343,4.192-30.685c.2-1.463.473-2.935.606-4.406.006-.072.123-.408.09-.449.646.805-.287.131-.073.187-.177-.047-.594-.04-.179.061a11.511,11.511,0,0,0,1.141.16l2.583.363,14.853,2.085,38.164,5.359,14.9,2.092,2.6.365c.362.051.724.106,1.087.152a3.211,3.211,0,0,1,.465.094c-.025.024-.26-.2-.186-.075-.253-.428-.087.027-.142.421l-1.518,10.941Q302.48,217.751,299,242.785q-1.662,11.948-3.327,23.9-.72,5.161-1.441,10.323c-.1.739-.216,1.477-.31,2.217s-.136.22.1.266c.438.084.149-.016-.123-.045-.841-.091-1.681-.233-2.519-.349q-17.018-2.349-34.036-4.674-17.255-2.365-34.508-4.736l-2.5-.344c-.375-.052-.751-.1-1.126-.156a2.424,2.424,0,0,0-.553-.09c-.286.05-.148-.124.023.057.08.084.04.631.082-.113.176-3.086-4.624-3.076-4.8,0a4.557,4.557,0,0,0,3.842,4.757c.811.13,1.63.225,2.443.337l6.57.9q9.006,1.237,18.013,2.472,19.345,2.654,38.692,5.309l6.75.93,2.62.362c2.312.318,4.551-.465,5.428-2.81a24.991,24.991,0,0,0,.831-5.162l.741-5.312q.819-5.868,1.636-11.737,3.611-25.925,7.208-51.851,1.656-11.93,3.311-23.86a9.074,9.074,0,0,0,.164-3.248,4.577,4.577,0,0,0-2.113-2.874,8.327,8.327,0,0,0-3.181-.783l-6.293-.884-37.577-5.275-18.445-2.59-7.15-1c-1.848-.259-4-.857-5.861-.709a4.554,4.554,0,0,0-4.1,4.014c-.1.688-.19,1.379-.285,2.069q-.39,2.839-.779,5.679-1.063,7.764-2.122,15.529-2.654,19.444-5.3,38.889-2.169,15.912-4.346,31.825-.3,2.192-.6,4.385a2.483,2.483,0,0,0,1.676,2.952A2.418,2.418,0,0,0,218.686,269.674Z"/><path class="d" d="M287.472,226.683,284,226.189l-1.668-.237-.8-.113c-.113-.016-.229-.028-.341-.048-.254-.046-.447-.2.032.074-.342-.2.13.111.142.15-.012-.041-.4-.38-.088-.055.283.293-.024-.216.1.179.143.441.022-.076,0-.105.035.04.051.622.062.216-.017.61-.053.374-.028.2l.123-.866q.253-1.8.493-3.6c.028-.21.056-.419.083-.629l.02-.15c.027-.206.026-.2,0,.028l-.021.175c.058-.191.046-.186-.034.017-.255.335.079,0,.071-.084,0,.042-.386.454-.1.18-.394.381-.316.222-.152.14q-.554.209-.192.09l.136-.03-.358.057q.3.015-.017-.021l-.161-.023.259.037.8.114,1.771.253c1.141.163,2.285.365,3.431.5.389.044-.147-.015-.176-.1,0-.016.214.139.236.141l-.277-.2c.13.142.125.13-.013-.037l-.106-.135q.183.33-.064-.208c-.006.018.079.276.07.265-.159-.2-.043-.524-.06-.217.043-.789-.006.061-.034.26l-.5,3.541c-.036.257-.07.514-.108.77-.013.09-.04.195-.046.287-.031.454.238-.419.034-.054-.232.416.291-.344.077-.115-.187.2.462-.281.1-.1.543-.276.325-.125.125-.077s-.089.026.292-.043a1.741,1.741,0,0,1-.288-.018,2.408,2.408,0,0,0-2.4,2.4,2.466,2.466,0,0,0,2.4,2.4,4.162,4.162,0,0,0,4.248-2.981,13.091,13.091,0,0,0,.261-1.687l.289-2.059c.23-1.633.65-3.277-.257-4.789a4.227,4.227,0,0,0-2.262-1.789,11.569,11.569,0,0,0-2.084-.348l-4.275-.61a5.049,5.049,0,0,0-2.583.084,4.2,4.2,0,0,0-2.3,1.943,7.067,7.067,0,0,0-.59,2.507l-.042.32c.092-.7.014-.11,0,.026l-.141,1.027q-.126.915-.256,1.829a5.964,5.964,0,0,0-.007,2.707,4.2,4.2,0,0,0,1.98,2.433,7.165,7.165,0,0,0,2.524.609l4.864.693a2.646,2.646,0,0,0,1.85-.242,2.449,2.449,0,0,0,1.1-1.435C289.407,228.5,288.8,226.872,287.472,226.683Z"/><path class="d" d="M267.351,223.855l-3.469-.494-1.668-.237-.8-.113c-.113-.016-.229-.028-.342-.048-.254-.046-.446-.2.032.074-.341-.2.131.111.142.15-.012-.041-.4-.38-.087-.055.283.293-.024-.215.1.179.144.441.022-.076,0-.105.035.04.05.622.062.216-.017.61-.054.374-.029.2q.063-.432.123-.866.253-1.8.493-3.6l.084-.629.02-.15c.026-.206.026-.2,0,.028l-.021.176q.086-.288-.034.016c-.256.335.079,0,.07-.084,0,.042-.385.454-.1.18-.393.381-.315.222-.152.141q-.554.207-.191.089l.136-.03-.358.057c.2.01.192,0-.018-.021l-.161-.023.259.037.8.114,1.77.253c1.142.163,2.286.365,3.431.5.389.044-.146-.014-.176-.1,0-.016.214.139.236.141l-.277-.2q.195.213-.012-.037l-.107-.135q.183.33-.064-.208c0,.018.079.276.071.265-.159-.2-.044-.524-.06-.217.042-.789-.007.061-.035.26l-.5,3.541c-.036.257-.07.514-.108.77-.013.09-.04.195-.046.287-.03.454.238-.418.035-.054-.232.416.291-.344.076-.115-.186.2.463-.28.1-.1.543-.276.326-.125.126-.077s-.089.026.292-.043a1.841,1.841,0,0,1-.288-.017,2.407,2.407,0,0,0-2.4,2.4,2.467,2.467,0,0,0,2.4,2.4,4.165,4.165,0,0,0,4.248-2.982,13.089,13.089,0,0,0,.26-1.687l.29-2.059c.229-1.633.649-3.277-.257-4.789a4.23,4.23,0,0,0-2.262-1.789,11.684,11.684,0,0,0-2.085-.348l-4.275-.61a5.045,5.045,0,0,0-2.582.085,4.2,4.2,0,0,0-2.3,1.942,7.087,7.087,0,0,0-.589,2.507c-.014.107-.029.213-.043.32.093-.7.015-.11,0,.026-.046.342-.093.685-.14,1.027q-.128.915-.257,1.829a5.978,5.978,0,0,0-.007,2.707,4.208,4.208,0,0,0,1.981,2.433,7.16,7.16,0,0,0,2.523.609q2.433.346,4.865.693a2.638,2.638,0,0,0,1.849-.242,2.443,2.443,0,0,0,1.1-1.434C269.285,225.674,268.68,224.044,267.351,223.855Z"/><path class="d" d="M244.385,239.233l-3.469-.494-1.668-.237-.795-.113c-.114-.016-.229-.028-.342-.048-.254-.045-.447-.2.032.074-.342-.2.13.111.142.15-.012-.041-.4-.38-.088-.055.284.293-.023-.215.1.179.143.441.022-.076,0-.1.034.04.05.622.061.217-.017.609-.053.373-.028.2l.123-.866q.253-1.8.493-3.6l.084-.629.019-.15q.041-.307,0,.028l-.021.176q.087-.288-.034.016c-.255.335.079,0,.071-.084,0,.042-.386.454-.1.18-.393.381-.315.222-.152.141q-.553.207-.191.089l.135-.03-.358.057q.3.015-.017-.021l-.161-.023.259.037.8.114,1.771.253c1.142.163,2.285.365,3.431.5.389.044-.147-.014-.176-.1,0-.016.214.14.236.141l-.277-.2c.13.142.125.13-.013-.037l-.106-.135q.183.33-.064-.208c0,.018.079.276.071.265-.16-.2-.044-.524-.061-.217.043-.789-.006.061-.034.26l-.5,3.542c-.036.256-.07.513-.108.769-.013.09-.04.2-.046.287-.031.454.238-.418.034-.054-.232.416.291-.344.077-.115-.187.2.462-.28.1-.1.543-.276.326-.125.125-.077-.186.04-.088.026.292-.043a1.836,1.836,0,0,1-.287-.017,2.407,2.407,0,0,0-2.4,2.4,2.466,2.466,0,0,0,2.4,2.4,4.163,4.163,0,0,0,4.247-2.982,13.091,13.091,0,0,0,.261-1.687l.289-2.059c.23-1.633.65-3.277-.257-4.789a4.227,4.227,0,0,0-2.262-1.789,11.658,11.658,0,0,0-2.084-.348l-4.275-.61a5.049,5.049,0,0,0-2.583.085,4.2,4.2,0,0,0-2.3,1.942,7.089,7.089,0,0,0-.59,2.507l-.042.32c.092-.7.014-.11,0,.026L234,235.591q-.126.915-.256,1.829a5.964,5.964,0,0,0-.007,2.707,4.207,4.207,0,0,0,1.98,2.433,7.149,7.149,0,0,0,2.524.609q2.432.346,4.865.693a2.638,2.638,0,0,0,1.849-.242,2.443,2.443,0,0,0,1.1-1.434C246.319,241.052,245.714,239.422,244.385,239.233Z"/><path class="d" d="M284.908,244.929l-3.469-.5-1.667-.237-.8-.113c-.113-.016-.229-.028-.341-.048-.254-.045-.447-.2.032.075-.342-.2.13.11.142.15-.013-.042-.4-.381-.088-.056.283.293-.024-.215.1.179.144.441.023-.076,0-.1.035.039.051.621.062.216-.017.609-.053.373-.029.2q.063-.434.124-.866.252-1.8.492-3.6l.084-.629.02-.15c.026-.205.026-.2,0,.029l-.021.175c.058-.192.046-.186-.034.016-.256.335.079,0,.071-.083,0,.041-.386.453-.1.179-.393.381-.315.223-.151.141q-.554.209-.192.09l.136-.031-.358.057q.3.015-.017-.02l-.162-.024.26.037.8.114,1.771.253c1.141.163,2.285.365,3.43.5.389.044-.146-.014-.175-.1-.006-.016.214.14.236.141l-.277-.2q.194.213-.013-.037l-.107-.135q.183.332-.063-.208c-.006.018.079.276.07.266-.159-.2-.044-.525-.06-.217.042-.79-.007.061-.035.259l-.5,3.542c-.036.256-.071.513-.108.769-.014.09-.041.195-.047.287-.03.454.239-.418.035-.054-.232.416.291-.343.077-.115-.187.2.462-.28.1-.1.543-.277.325-.126.125-.078s-.089.026.292-.043a1.848,1.848,0,0,1-.288-.017,2.407,2.407,0,0,0-2.4,2.4,2.466,2.466,0,0,0,2.4,2.4,4.163,4.163,0,0,0,4.248-2.982,13.212,13.212,0,0,0,.261-1.687l.289-2.059c.229-1.633.65-3.277-.257-4.789a4.228,4.228,0,0,0-2.262-1.788,11.5,11.5,0,0,0-2.084-.348l-4.275-.611a5.06,5.06,0,0,0-2.583.085,4.2,4.2,0,0,0-2.3,1.943,7.057,7.057,0,0,0-.59,2.507c-.014.106-.029.213-.043.319.093-.7.015-.11,0,.026l-.141,1.027q-.126.915-.256,1.829a5.964,5.964,0,0,0-.008,2.707,4.205,4.205,0,0,0,1.981,2.433,7.138,7.138,0,0,0,2.523.609l4.865.693a2.641,2.641,0,0,0,1.85-.242,2.451,2.451,0,0,0,1.1-1.434C286.843,246.747,286.238,245.117,284.908,244.929Z"/><path class="d" d="M264.787,242.1l-3.469-.494-1.668-.238-.795-.112c-.114-.017-.229-.029-.342-.049-.254-.045-.447-.2.032.075-.342-.2.131.11.142.15-.012-.042-.4-.381-.088-.056.284.294-.023-.215.105.179.143.442.022-.075,0-.1.034.039.05.621.061.216-.017.61-.053.373-.028.2l.123-.866q.253-1.8.493-3.6l.084-.629.02-.15c.026-.205.025-.2,0,.029l-.021.175c.057-.192.046-.186-.034.016-.256.335.079,0,.07-.083,0,.042-.386.453-.1.179-.393.382-.315.223-.152.141q-.553.209-.191.09l.135-.031-.357.057q.3.015-.018-.02l-.161-.024.259.037.8.114,1.77.253c1.142.163,2.286.365,3.431.5.389.044-.147-.014-.176-.1,0-.016.214.14.236.141l-.277-.2q.195.213-.013-.037l-.106-.135q.183.332-.064-.208c0,.018.079.277.071.266-.16-.2-.044-.525-.06-.217.042-.79-.007.061-.035.259l-.5,3.542c-.036.256-.07.513-.108.769-.013.09-.04.195-.046.287-.03.454.238-.418.035-.054-.233.416.29-.343.076-.115-.187.2.462-.28.1-.1.543-.277.326-.126.126-.078s-.089.026.291-.043a1.722,1.722,0,0,1-.287-.017,2.407,2.407,0,0,0-2.4,2.4,2.466,2.466,0,0,0,2.4,2.4,4.163,4.163,0,0,0,4.248-2.982,13.035,13.035,0,0,0,.26-1.687l.289-2.059c.23-1.633.65-3.276-.256-4.788a4.226,4.226,0,0,0-2.262-1.789,11.507,11.507,0,0,0-2.085-.348l-4.275-.611a5.056,5.056,0,0,0-2.582.085,4.2,4.2,0,0,0-2.3,1.943,7.056,7.056,0,0,0-.589,2.507c-.015.106-.029.213-.043.319.092-.7.014-.11,0,.026-.046.343-.093.685-.141,1.028q-.126.913-.256,1.828a5.964,5.964,0,0,0-.007,2.707,4.2,4.2,0,0,0,1.981,2.433,7.138,7.138,0,0,0,2.523.609q2.433.346,4.865.693a2.638,2.638,0,0,0,1.849-.242,2.443,2.443,0,0,0,1.1-1.434C266.721,243.919,266.116,242.289,264.787,242.1Z"/><path class="d" d="M241.82,257.479l-3.469-.494-1.667-.238-.8-.112c-.113-.016-.229-.029-.341-.049-.254-.045-.447-.2.032.075-.342-.2.13.11.142.15-.012-.042-.4-.381-.088-.056.283.294-.024-.215.1.179.143.442.022-.075,0-.1.035.039.051.621.062.216-.017.61-.053.373-.028.2l.123-.866q.254-1.8.492-3.6.043-.315.084-.63l.02-.15c.027-.2.026-.2,0,.029l-.021.175c.058-.192.046-.186-.034.016-.256.335.079,0,.071-.083,0,.042-.386.453-.1.179-.394.382-.316.223-.152.141q-.554.208-.192.09l.136-.031-.358.057q.3.015-.017-.02l-.161-.024.259.037.8.114,1.771.253c1.141.163,2.285.365,3.431.495.388.044-.147-.014-.176-.1-.006-.016.214.14.236.141l-.277-.2q.194.213-.013-.037l-.106-.135q.183.332-.064-.208c-.006.019.079.277.07.266-.159-.2-.043-.525-.06-.217.042-.79-.006.061-.034.259l-.5,3.542c-.036.256-.07.513-.108.769-.014.09-.04.195-.047.287-.03.454.239-.418.035-.054-.232.416.291-.343.077-.115-.187.2.462-.28.1-.1.543-.277.325-.126.125-.078s-.089.026.292-.042a1.857,1.857,0,0,1-.288-.018,2.407,2.407,0,0,0-2.4,2.4,2.466,2.466,0,0,0,2.4,2.4,4.163,4.163,0,0,0,4.248-2.982,13.212,13.212,0,0,0,.261-1.687l.289-2.059c.23-1.633.65-3.276-.257-4.788a4.222,4.222,0,0,0-2.262-1.789,11.5,11.5,0,0,0-2.084-.348l-4.275-.611a5.06,5.06,0,0,0-2.583.085,4.2,4.2,0,0,0-2.3,1.943,7.057,7.057,0,0,0-.59,2.507c-.014.106-.028.213-.043.32.093-.7.015-.111,0,.025l-.141,1.028q-.126.913-.256,1.828a5.964,5.964,0,0,0-.008,2.707,4.2,4.2,0,0,0,1.981,2.433,7.167,7.167,0,0,0,2.524.61l4.864.692a2.641,2.641,0,0,0,1.85-.242,2.447,2.447,0,0,0,1.1-1.434C243.755,259.3,243.15,257.668,241.82,257.479Z"/><path class="d" d="M282.344,263.174l-3.469-.494-1.667-.237-.8-.113c-.113-.016-.229-.028-.342-.049-.254-.045-.446-.2.033.075-.342-.2.13.11.141.15-.012-.041-.4-.38-.087-.055.283.293-.024-.216.1.179.144.441.022-.076,0-.105.035.039.05.622.062.216-.017.61-.054.374-.029.2.042-.289.083-.577.123-.866q.254-1.8.493-3.6l.084-.629.02-.151c.026-.2.026-.195,0,.029l-.021.175q.086-.287-.034.016c-.256.336.079,0,.07-.083,0,.042-.385.454-.1.18-.393.381-.315.222-.152.14q-.554.209-.191.09l.136-.031-.358.058c.2.009.192,0-.018-.021l-.161-.023.259.036.8.115,1.77.253c1.142.163,2.286.365,3.431.5.389.044-.146-.015-.176-.1,0-.016.214.139.236.141l-.277-.2c.13.143.126.13-.012-.037l-.107-.134q.183.33-.063-.208c-.006.018.078.276.07.265-.159-.2-.044-.525-.06-.217.042-.79-.007.061-.035.26l-.5,3.541c-.036.257-.07.513-.108.77-.013.089-.04.194-.046.286-.03.455.238-.418.035-.053-.232.416.291-.344.076-.116-.186.2.463-.28.1-.1.542-.276.325-.125.125-.077s-.089.025.292-.043a1.728,1.728,0,0,1-.288-.018,2.408,2.408,0,0,0-2.4,2.4,2.466,2.466,0,0,0,2.4,2.4,4.163,4.163,0,0,0,4.248-2.981,13.077,13.077,0,0,0,.26-1.688l.29-2.059c.229-1.633.649-3.276-.257-4.788a4.23,4.23,0,0,0-2.262-1.789,11.6,11.6,0,0,0-2.085-.348q-2.137-.3-4.275-.61a5.045,5.045,0,0,0-2.582.084,4.2,4.2,0,0,0-2.3,1.943,7.087,7.087,0,0,0-.589,2.507c-.014.107-.029.213-.043.32.093-.7.015-.11,0,.025-.046.343-.093.685-.14,1.028q-.128.915-.257,1.829a5.974,5.974,0,0,0-.007,2.706,4.207,4.207,0,0,0,1.981,2.434,7.16,7.16,0,0,0,2.523.609l4.865.692a2.643,2.643,0,0,0,1.849-.241,2.448,2.448,0,0,0,1.1-1.435C284.278,264.993,283.673,263.363,282.344,263.174Z"/><path class="d" d="M262.223,260.346l-3.469-.494-1.668-.237-.8-.113c-.114-.016-.23-.028-.342-.048-.254-.046-.447-.2.032.074-.342-.2.13.11.142.15-.012-.041-.4-.38-.088-.055.284.293-.024-.216.1.179.143.441.022-.076,0-.105.035.039.051.622.062.216-.017.61-.053.374-.028.2l.123-.866q.253-1.8.493-3.6.042-.315.083-.629l.02-.15c.027-.206.026-.2,0,.028l-.021.175q.087-.286-.034.016c-.255.336.079,0,.071-.083,0,.042-.386.454-.1.18-.394.381-.316.222-.152.14q-.554.209-.191.09l.135-.03-.358.057c.2.009.192,0-.017-.021l-.161-.023.259.037.8.114,1.771.253c1.142.163,2.285.365,3.431.5.389.044-.147-.015-.176-.1,0-.016.214.139.236.141l-.277-.2c.13.143.125.13-.013-.036l-.106-.135q.183.33-.064-.208c-.006.018.079.276.071.265-.16-.2-.044-.525-.061-.217.043-.789-.006.061-.034.26l-.5,3.541c-.036.257-.07.513-.108.77-.013.09-.04.195-.046.287-.031.454.238-.419.034-.054-.232.416.291-.344.077-.116-.187.2.462-.28.1-.1.543-.276.326-.125.125-.077-.186.04-.088.025.292-.043a1.722,1.722,0,0,1-.287-.018,2.408,2.408,0,0,0-2.4,2.4,2.465,2.465,0,0,0,2.4,2.4,4.161,4.161,0,0,0,4.247-2.981,13.079,13.079,0,0,0,.261-1.688l.289-2.059c.23-1.632.65-3.276-.257-4.788a4.227,4.227,0,0,0-2.262-1.789,11.569,11.569,0,0,0-2.084-.348l-4.275-.61a5.049,5.049,0,0,0-2.583.084,4.2,4.2,0,0,0-2.3,1.943,7.089,7.089,0,0,0-.59,2.507l-.042.32c.092-.7.014-.11,0,.026l-.141,1.027q-.126.915-.256,1.829a5.964,5.964,0,0,0-.007,2.707,4.2,4.2,0,0,0,1.98,2.433,7.171,7.171,0,0,0,2.524.609l4.865.693a2.649,2.649,0,0,0,1.849-.242,2.449,2.449,0,0,0,1.1-1.435C264.157,262.165,263.552,260.535,262.223,260.346Z"/><path class="f" d="M292.824,204.74c-.105.81-.2,1.525-.273,2.087a1.765,1.765,0,0,1-2,1.527c-9.955-1.375-39.716-5.373-48.463-6.573a1.775,1.775,0,0,1-1.526-2c.592-4.3,1.754-13.061,2.046-14.777l12.931,1.705c12.918,1.813,30.467,4.234,37.184,5.177a1.773,1.773,0,0,1,1.519,1.99C293.94,196.181,293.273,201.307,292.824,204.74Z"/><path class="d" d="M291.841,193.875c-.415,3.965-1.026,7.9-1.526,11.852-.016.131-.12.412-.042.486-.2-.187,1.431-.1.227-.268l-1.958-.269-4.527-.617q-11.878-1.615-23.76-3.216-5.449-.736-10.9-1.474l-4.341-.589-1.681-.229c-.094-.013-.561-.139-.61-.084.185-.206.013,1.993.288-.071.533-4,1-8.018,1.524-12.024a4.173,4.173,0,0,0,.076-.577l.036-.275q-.06.821-1.325.794a3.751,3.751,0,0,0,1.112.156l3.01.418q3.314.459,6.626.911c10.248,1.4,20.5,2.778,30.742,4.224a2.482,2.482,0,0,0,2.952-1.676,2.418,2.418,0,0,0-1.676-2.953c-10-1.411-20.013-2.755-30.02-4.125q-3.673-.5-7.348-1.009l-3.01-.419c-1.427-.2-2.822-.556-4.133.281-2.155,1.376-1.93,4.9-2.217,7.176-.3,2.365-.589,4.73-.889,7.094l-.171,1.333c-.02.153-.04.306-.061.459.116-.876-.1,1.075-.08.6a4.226,4.226,0,0,0,2.112,3.88c1.261.684,2.967.681,4.369.871q5.472.744,10.946,1.483,13.043,1.762,26.085,3.528l5.8.791c2.247.308,4.64.963,6.4-.949a6.523,6.523,0,0,0,1.282-3.725c.211-1.411.4-2.825.586-4.239.329-2.511.638-5.026.9-7.545a2.415,2.415,0,0,0-2.4-2.4,2.454,2.454,0,0,0-2.4,2.4Z"/><path class="d" d="M167.513,114.671c8.243.239,17.619.037,22.767-7.491,3.855-5.638,4.646-15.473-.792-20.423a8.269,8.269,0,0,0-3.169-1.31q-1.706-.519-3.445-.915a55.079,55.079,0,0,0-6.816-1.094,49.565,49.565,0,0,0-13.4.529c-3.865.673-8.626,1.42-10.9,4.966a15.177,15.177,0,0,0-2.061,8.985c.33,4.439,2.193,9.24,5.546,12.283,3.316,3.009,7.87,4.3,12.267,4.47,3.089.118,3.084-4.682,0-4.8-3.454-.133-7.238-1.166-9.621-3.817a14.094,14.094,0,0,1-3.368-10.6,12.22,12.22,0,0,1,.821-3.061c.754-1.687,1.4-1.943,3.1-2.471a43.328,43.328,0,0,1,13.586-1.912,48.2,48.2,0,0,1,15.124,2.763l-1.059-.618c3.732,3.827,2.876,10.844-.149,14.878-4.164,5.552-12.276,5.021-18.432,4.842C164.423,109.781,164.426,114.581,167.513,114.671Z"/><path class="d" d="M103.839,90.769a47.018,47.018,0,0,1,22.106-2.354,43.12,43.12,0,0,1,5.517,1.181,19.831,19.831,0,0,1,2.6.822,2.219,2.219,0,0,1,.863.693,9.993,9.993,0,0,1,1.6,6.231,14.509,14.509,0,0,1-3.195,8.445c-1.9,2.314-4.874,3.429-7.759,3.9a42.484,42.484,0,0,1-10.371.109c-3.129-.288-6.506-1.171-8.862-3.363-4.118-3.829-5.616-12-1.439-16.28,2.158-2.213-1.233-5.61-3.395-3.394-5.135,5.266-4.826,14.374-.884,20.285,5,7.5,14.264,7.894,22.428,7.641a20.418,20.418,0,0,0,11.09-3.215,17.514,17.514,0,0,0,6.535-9.835,17.1,17.1,0,0,0-.172-9.919,10.9,10.9,0,0,0-2.461-4.3c-1.472-1.457-3.581-1.975-5.52-2.51a50.74,50.74,0,0,0-29.957,1.234,2.459,2.459,0,0,0-1.676,2.952,2.423,2.423,0,0,0,2.952,1.677Z"/><path class="d" d="M141.517,98.286c.5-.248-.548.195,0-.006.178-.065.36-.122.543-.174.386-.107.778-.182,1.172-.251.177-.032.523-.022-.171.018.092-.005.184-.023.275-.033q.351-.038.7-.062.726-.048,1.455-.043c.463,0,.927.022,1.389.056q.359.027.714.066c.174.02.532.115-.151-.025.089.019.181.027.271.041.427.067.852.151,1.27.26.171.045.342.093.51.148.2.065.9.36.081,0a2.63,2.63,0,0,0,1.85.242,2.452,2.452,0,0,0,1.434-1.1c.547-1.035.369-2.751-.861-3.284a16.561,16.561,0,0,0-6.507-1.206,14.112,14.112,0,0,0-6.4,1.206,2.417,2.417,0,0,0-.861,3.284,2.459,2.459,0,0,0,3.284.861Z"/><path class="d" d="M194.875,95.542c.087-.039.175-.078.263-.115l-.573.242a24.334,24.334,0,0,1,4.825-1.525,2.415,2.415,0,0,0,1.434-1.1,2.448,2.448,0,0,0,.242-1.849,2.422,2.422,0,0,0-1.1-1.434,2.671,2.671,0,0,0-1.849-.242,26.07,26.07,0,0,0-5.662,1.881,2.4,2.4,0,0,0-1.1,1.434,2.454,2.454,0,0,0,.242,1.85,2.425,2.425,0,0,0,1.434,1.1l.638.085a2.388,2.388,0,0,0,1.212-.327Z"/><path class="d" d="M97.946,91.4a26.088,26.088,0,0,0-5.662-1.881,2.572,2.572,0,0,0-1.85.242,2.4,2.4,0,0,0-.861,3.283,2.369,2.369,0,0,0,1.435,1.1,24.334,24.334,0,0,1,4.825,1.525l-.574-.242c.089.037.176.076.264.115a1.783,1.783,0,0,0,.892.284,1.812,1.812,0,0,0,.957-.042,2.454,2.454,0,0,0,1.435-1.1,2.429,2.429,0,0,0,.242-1.85,2.336,2.336,0,0,0-1.1-1.434Z"/><path class="d" d="M135.192,136.634a22.213,22.213,0,0,0,10.694,2.467c3.79-.025,7.665-.752,10.706-3.121a2.413,2.413,0,0,0,0-3.394,2.463,2.463,0,0,0-3.4,0c.7-.546.063-.063-.117.052-.218.141-.444.27-.674.391-.144.076-.917.414-.352.187-.307.123-.616.237-.931.338a16.578,16.578,0,0,1-5.587.747,17.311,17.311,0,0,1-5.333-.718c-.341-.1-.674-.224-1.01-.34-.109-.037-.215-.093-.325-.126.58.175.127.057-.016-.01-.418-.2-.829-.4-1.237-.618a2.453,2.453,0,0,0-3.284.861,2.427,2.427,0,0,0,.861,3.284Z"/><path class="d" d="M144.865,111.185a51.214,51.214,0,0,1,1.2,5.514l-.086-.638a3.284,3.284,0,0,1,.021.761l.086-.638a1.837,1.837,0,0,1-.084.342l.242-.573a1.306,1.306,0,0,1-.121.22l.375-.486a1.123,1.123,0,0,1-.18.178l.486-.375a3.717,3.717,0,0,1-.437.231l.574-.242a3.211,3.211,0,0,1-.737.215l.638-.086a2.958,2.958,0,0,1-.691,0l.638.085c-.26-.036-.516-.1-.776-.134a2.646,2.646,0,0,0-1.85.242,2.4,2.4,0,0,0-.861,3.283,2.3,2.3,0,0,0,1.435,1.1c.555.075,1.094.217,1.658.242a5.221,5.221,0,0,0,2.395-.563,3.361,3.361,0,0,0,1.892-2.228,5.747,5.747,0,0,0-.026-2.449c-.3-1.776-.711-3.537-1.168-5.279a2.4,2.4,0,1,0-4.628,1.276Z"/><path class="d" d="M115.3,95.682c-.921,2.993-.321,9.876,5.349,10.462,7.493-.044,7.891-8.367,5.369-12.28C123.949,90.66,117.876,89.327,115.3,95.682Z"/><path class="d" d="M175.3,95.682c.921,2.993.321,9.877-5.348,10.462-7.493-.045-7.892-8.368-5.37-12.281C166.647,90.659,172.72,89.327,175.3,95.682Z"/></svg>