<svg width="66" height="66" viewBox="0 0 66 66" fill="none" xmlns="http://www.w3.org/2000/svg">
<rect width="66" height="66" rx="16" fill="#083D77"/>
<path d="M49 21C49 16.664 41.674 13 33 13C24.326 13 17 16.664 17 21V25C17 29.336 24.326 33 33 33C41.674 33 49 29.336 49 25V21ZM33 47C24.326 47 17 43.336 17 39V45C17 49.336 24.326 53 33 53C41.674 53 49 49.336 49 45V39C49 43.336 41.674 47 33 47Z" fill="#A2E3FF"/>
<path d="M49 29C49 33.336 41.674 37 33 37C24.326 37 17 33.336 17 29V35C17 39.336 24.326 43 33 43C41.674 43 49 39.336 49 35V29Z" fill="#A2E3FF"/>
</svg>
