<?xml version="1.0" encoding="iso-8859-1"?>
<!-- Uploaded to: SVG Repo, www.svgrepo.com, Generator: SVG Repo Mixer Tools -->
<svg version="1.1" id="Layer_1" xmlns="http://www.w3.org/2000/svg" xmlns:xlink="http://www.w3.org/1999/xlink" 
	 viewBox="0 0 512 512" xml:space="preserve">
<path style="fill:#36A1CB;" d="M102.33,359.325c-33.525,11.225-57.692,42.862-57.692,80.164v51.491
	c0,7.144,5.792,12.935,12.935,12.935h44.757V359.325z"/>
<path style="fill:#2B80AF;" d="M73.237,493.379v-51.492c0-28.68,14.295-53.997,36.134-69.276v-10.888
	c-33.525,11.225-57.692,42.862-57.692,80.164v51.492c0,7.144,5.792,12.935,12.935,12.935h21.558
	C79.029,506.314,73.237,500.524,73.237,493.379z"/>
<path style="fill:#F28838;" d="M284.598,128.199V22.385c0-7.898-6.403-14.3-14.3-14.3h-28.599c-7.897,0-14.299,6.402-14.299,14.3
	v105.815H284.598z"/>
<path style="fill:#EF711D;" d="M267.352,12.638h-20.768c-7.897,0-14.299,6.403-14.299,14.3v105.815h20.768V26.938
	C253.052,19.04,259.455,12.638,267.352,12.638z"/>
<path style="fill:#FFB92E;" d="M227.4,30.593c-44.868,11.722-78.865,50.336-83.68,97.607h83.68L227.4,30.593L227.4,30.593z"/>
<path style="fill:#FFAB31;" d="M232.286,43.821v-8.675c-44.868,11.722-78.865,50.336-83.68,97.607h22.708
	C175.276,93.854,199.007,60.835,232.286,43.821z"/>
<g>
	<polygon style="fill:#8BD8F7;" points="255.999,399.139 290.987,423.383 333.846,354.945 300.193,342.344 	"/>
	<polygon style="fill:#8BD8F7;" points="255.971,399.139 220.983,423.383 178.124,354.945 211.778,342.344 	"/>
</g>
<g>
	<path style="fill:#36A1CB;" d="M409.612,359.308v144.608h44.811c7.144,0,12.935-5.79,12.935-12.935V439.49
		C467.358,402.168,443.164,370.517,409.612,359.308z"/>
	<path style="fill:#36A1CB;" d="M333.998,503.916h28.798V355.278c0-0.112,0.014-0.221,0.017-0.333h-28.966l-42.859,68.438
		l-34.988-24.244l-0.123-0.123l0.096,0.123l-34.988,24.244l-42.859-68.438h-28.993c0.003,0.111,0.017,0.221,0.017,0.333v148.637
		h155.747"/>
</g>
<polyline style="fill:#FFB92E;" points="149.175,503.916 149.175,469.405 362.823,469.405 362.823,503.916 "/>
<g>
	<path style="fill:#7C7A75;" d="M379.763,206.331v-46.257h-25.579v24.356C367.124,184.43,377.847,193.926,379.763,206.331z"/>
	<path style="fill:#7C7A75;" d="M157.815,184.43v-24.356h-25.887v50.241C131.928,196.019,143.518,184.43,157.815,184.43z"/>
</g>
<g>
	<path style="fill:#E2AF7D;" d="M157.815,184.43c-14.297,0-25.887,11.59-25.887,25.886s11.59,25.886,25.887,25.886V184.43z"/>
	<path style="fill:#E2AF7D;" d="M354.183,184.43c14.297,0,25.887,11.59,25.887,25.886s-11.59,25.886-25.887,25.886V184.43z"/>
	<path style="fill:#E2AF7D;" d="M296.949,322.718c-7.639,2.376-15.758,3.663-24.179,3.663h-0.001H239.23h-0.001
		c-8.422,0-16.54-1.287-24.179-3.663c-1.092-0.34-2.173-0.701-3.244-1.084v20.71l44.194,56.795l44.194-56.795v-20.71
		C299.121,322.017,298.039,322.379,296.949,322.718z"/>
</g>
<path style="fill:#F2CB9C;" d="M286.728,160.074h-61.459h-67.455v84.894c0,44.963,36.45,81.413,81.413,81.413h33.54
	c44.964,0,81.414-36.45,81.414-81.413v-84.894L286.728,160.074L286.728,160.074z"/>
<g>
	<path style="fill:#FFB92E;" d="M284.598,128.199h83.679c-4.814-47.27-38.812-85.884-83.679-97.607L284.598,128.199L284.598,128.199
		z"/>
	<path style="fill:#FFB92E;" d="M409.612,503.916V355.278c0-7.143-5.79-12.935-12.935-12.935h-20.947
		c-7.143,0-12.935,5.792-12.935,12.935v148.637H409.612z"/>
	<path style="fill:#FFB92E;" d="M149.148,503.916V355.278c0-7.143-5.79-12.935-12.935-12.935h-20.948
		c-7.143,0-12.935,5.792-12.935,12.935v148.637H149.148z"/>
</g>
<g>
	<path style="fill:#F28838;" d="M386.232,145.88v-3.487c0-7.838-6.355-14.194-14.194-14.194h-85.31h-61.459h-85.31
		c-7.84,0-14.193,6.355-14.193,14.194v3.487c0,7.838,6.354,14.194,14.193,14.194h85.31h61.459h85.31
		C379.876,160.074,386.232,153.719,386.232,145.88z"/>
	<rect x="102.334" y="409.923" style="fill:#F28838;" width="46.813" height="93.992"/>
	<rect x="362.796" y="409.923" style="fill:#F28838;" width="46.813" height="93.992"/>
</g>
<path style="fill:#DB995D;" d="M241.482,350.026v-13.864v-7.599c-6.333-0.454-12.465-1.629-18.313-3.447
	c-1.092-0.34-2.173-0.701-3.244-1.084v20.71l21.558,27.704V350.026z"/>
<path style="fill:#EDBD88;" d="M184.354,247.365v-84.894H162.7v84.894c0,44.963,36.45,81.413,81.413,81.413h21.654
	C220.804,328.779,184.354,292.328,184.354,247.365z"/>
<path style="fill:#EF9A1D;" d="M120.15,344.741c-7.143,0-12.935,5.792-12.935,12.935v58.095h21.558v-58.095
	c0-7.04,5.629-12.756,12.63-12.919c-0.102-0.003-0.203-0.016-0.305-0.016H120.15z"/>
<rect x="107.217" y="412.316" style="fill:#EF711D;" width="21.558" height="93.992"/>
<path style="fill:#EF9A1D;" d="M380.616,344.741c-7.143,0-12.935,5.792-12.935,12.935v61.229h21.558v-61.229
	c0-7.04,5.629-12.756,12.63-12.919c-0.102-0.003-0.203-0.016-0.305-0.016H380.616z"/>
<g>
	<rect x="367.679" y="412.316" style="fill:#EF711D;" width="21.558" height="93.992"/>
	<path style="fill:#EF711D;" d="M154.695,145.88v-3.487c0-7.838,6.354-14.194,14.193-14.194h-20.768
		c-7.838,0-14.193,6.355-14.193,14.194v3.487c0,7.838,6.354,14.194,14.193,14.194h20.768
		C161.049,160.074,154.695,153.719,154.695,145.88z"/>
</g>
<path style="fill:#231F20;" d="M417.616,353.667c-0.828-10.837-9.892-19.408-20.937-19.408h-20.948
	c-8.596,0-15.994,5.193-19.247,12.602H335.31l-27.034-10.123v-9.636c31.732-13.772,53.991-45.397,53.991-82.135v-1.663
	c14.84-3.638,25.887-17.045,25.887-32.99c0-1.524-0.111-3.022-0.306-4.494v-44.266c3.995-4.028,6.468-9.567,6.468-15.675v-3.487
	c0-11.148-8.238-20.381-18.941-22c-4.178-25.79-16.65-49.128-34.762-66.912v-5.015c0-4.466-3.618-8.084-8.084-8.084
	c-1.951,0-3.739,0.691-5.136,1.841c-10.398-7.639-22.086-13.66-34.711-17.68v-2.157C292.682,10.041,282.641,0,270.298,0h-28.599
	c-12.342,0-22.384,10.041-22.384,22.385v2.157c-12.625,4.019-24.313,10.041-34.711,17.68c-1.396-1.15-3.185-1.841-5.135-1.841
	c-4.466,0-8.084,3.618-8.084,8.084v5.015c-18.112,17.784-30.584,41.124-34.762,66.914c-10.701,1.619-18.94,10.853-18.94,22v3.487
	c0,5.945,2.354,11.339,6.162,15.338v49.096c0,15.945,11.046,29.352,25.887,32.99v1.663c0,36.738,22.257,68.363,53.991,82.134v9.626
	l-27.059,10.133h-21.201c-3.253-7.409-10.651-12.602-19.247-12.602h-20.948c-11.053,0-20.12,8.582-20.938,19.429
	c-34.78,14.103-57.773,47.873-57.773,85.802v51.491c0,11.59,9.429,21.019,21.019,21.019h44.757h46.817h155.747
	c4.466,0,8.084-3.618,8.084-8.084s-3.618-8.084-8.084-8.084H157.259v-18.343h197.453v18.343h-20.714
	c-4.466,0-8.084,3.618-8.084,8.084s3.618,8.084,8.084,8.084h28.798h46.817h44.811c11.59,0,21.019-9.429,21.019-21.019v-51.492
	C475.443,401.534,452.43,367.755,417.616,353.667z M375.731,350.428h20.948c2.674,0,4.851,2.176,4.851,4.851v4.029v42.526H370.88
	v-46.351c0.007-0.103,0.011-0.205,0.014-0.309c0-0.009-0.001-0.017,0-0.026C370.963,352.534,373.1,350.428,375.731,350.428z
	 M401.528,495.832h-30.621v-26.427c0-0.183-0.015-0.363-0.027-0.543v-50.859h30.649v77.829H401.528z M190.23,359.045l18.818-7.046
	l35.297,45.362l-21.004,14.555L190.23,359.045z M267.627,397.36l35.297-45.362l18.818,7.046l-33.111,52.871L267.627,397.36z
	 M371.679,168.158v12.972c-2.889-1.724-6.055-3.026-9.411-3.833v-9.139H371.679z M362.267,226.172V194.5
	c3.085,1.591,5.682,4.046,7.409,7.073c0.007,0.012,0.014,0.024,0.021,0.036c0.494,0.87,0.912,1.787,1.255,2.741
	c0.043,0.122,0.081,0.246,0.122,0.369c0.11,0.331,0.211,0.665,0.302,1.005c0.044,0.164,0.086,0.329,0.126,0.496
	c0.082,0.347,0.152,0.7,0.213,1.055c0.171,0.99,0.271,2.004,0.271,3.042C371.985,217.222,368.032,223.222,362.267,226.172z
	 M358.934,120.115h-18.321V78.086C349.624,90.417,355.996,104.724,358.934,120.115z M324.445,60.514v59.601h-31.763V41.623
	C304.447,46.026,315.166,52.481,324.445,60.514z M235.484,22.385c0-3.428,2.789-6.216,6.215-6.216h28.599
	c3.428,0,6.216,2.789,6.216,6.216v8.208v89.522h-41.029V30.593v-8.208H235.484z M219.315,120.115h-31.763V60.514
	c9.279-8.034,19.999-14.488,31.763-18.891V120.115z M171.384,78.086v42.028h-18.321C156.002,104.725,162.374,90.417,171.384,78.086z
	 M133.85,142.393c0-3.368,2.74-6.109,6.108-6.109h3.761h83.68h57.197h83.679h3.761c3.368,0,6.11,2.741,6.11,6.109v3.487
	c0,3.368-2.741,6.109-6.11,6.109h-17.854H157.815H139.96c-3.368,0-6.108-2.741-6.108-6.109v-3.487H133.85z M149.731,177.317
	c-0.051,0.012-0.098,0.03-0.148,0.043c-0.752,0.188-1.494,0.403-2.226,0.64c-0.157,0.051-0.313,0.106-0.469,0.16
	c-0.714,0.244-1.42,0.504-2.112,0.792c-0.04,0.017-0.081,0.031-0.121,0.047c-0.721,0.304-1.425,0.639-2.119,0.991
	c-0.151,0.077-0.301,0.152-0.449,0.231c-0.677,0.356-1.343,0.728-1.992,1.126c-0.026,0.016-0.055,0.029-0.081,0.045v-13.234h9.718
	v9.159H149.731z M140.013,210.314c0-0.548,0.033-1.088,0.082-1.623c0.013-0.146,0.03-0.29,0.046-0.435
	c0.051-0.441,0.117-0.876,0.201-1.306c0.018-0.097,0.032-0.196,0.053-0.293c0.108-0.512,0.238-1.014,0.389-1.509
	c0.037-0.119,0.078-0.236,0.116-0.354c0.13-0.397,0.274-0.788,0.43-1.172c0.048-0.12,0.095-0.24,0.147-0.359
	c0.204-0.471,0.425-0.933,0.667-1.382c0.034-0.065,0.074-0.126,0.11-0.19c0.217-0.389,0.448-0.769,0.693-1.139
	c0.075-0.115,0.152-0.23,0.231-0.343c0.269-0.389,0.551-0.769,0.848-1.134c0.025-0.03,0.047-0.063,0.072-0.093
	c0.324-0.392,0.67-0.766,1.026-1.13c0.093-0.094,0.188-0.185,0.282-0.277c0.299-0.291,0.606-0.57,0.924-0.84
	c0.082-0.069,0.161-0.141,0.244-0.209c0.392-0.32,0.799-0.624,1.218-0.911c0.088-0.06,0.18-0.116,0.269-0.175
	c0.349-0.23,0.708-0.448,1.074-0.653c0.114-0.065,0.229-0.129,0.345-0.192c0.082-0.043,0.168-0.079,0.25-0.121v31.698
	C143.966,223.222,140.013,217.222,140.013,210.314z M165.899,244.968V236.2v-51.77v-16.272h180.2v16.272v51.77v8.768
	c0,34.005-23.27,62.672-54.72,70.93c-0.292,0.077-0.586,0.147-0.88,0.22c-0.79,0.197-1.585,0.38-2.384,0.552
	c-0.331,0.071-0.661,0.142-0.992,0.208c-0.951,0.19-1.908,0.362-2.872,0.514c-0.132,0.021-0.261,0.047-0.392,0.067
	c-1.08,0.165-2.169,0.3-3.264,0.416c-0.324,0.035-0.65,0.061-0.974,0.092c-0.821,0.077-1.646,0.14-2.475,0.189
	c-0.334,0.019-0.668,0.041-1.004,0.056c-1.119,0.051-2.242,0.085-3.374,0.085h-33.54c-1.131,0-2.254-0.035-3.373-0.085
	c-0.335-0.015-0.67-0.037-1.005-0.056c-0.827-0.049-1.65-0.112-2.469-0.189c-0.327-0.03-0.654-0.057-0.981-0.093
	c-1.093-0.116-2.18-0.251-3.257-0.415c-0.138-0.022-0.276-0.049-0.414-0.071c-0.956-0.151-1.906-0.322-2.849-0.51
	c-0.336-0.067-0.67-0.139-1.005-0.211c-0.794-0.17-1.583-0.352-2.368-0.548c-0.298-0.073-0.595-0.144-0.891-0.223
	C189.167,307.637,165.899,278.971,165.899,244.968z M221.576,332.708c1.229,0.247,2.462,0.468,3.7,0.663
	c0.254,0.04,0.511,0.078,0.766,0.115c1.269,0.189,2.542,0.354,3.819,0.487c0.207,0.022,0.415,0.039,0.623,0.059
	c1.342,0.13,2.687,0.237,4.037,0.308c0.121,0.006,0.241,0.009,0.362,0.015c1.444,0.07,2.893,0.11,4.344,0.11h0.001h0.001h33.539
	h0.001c1.453,0,2.903-0.041,4.349-0.11c0.117-0.005,0.236-0.009,0.355-0.014c1.354-0.071,2.703-0.178,4.051-0.309
	c0.202-0.019,0.404-0.037,0.606-0.058c1.284-0.135,2.562-0.3,3.837-0.489c0.249-0.037,0.497-0.073,0.745-0.112
	c1.245-0.196,2.485-0.418,3.72-0.666c0.249-0.051,0.498-0.102,0.746-0.154c0.31-0.065,0.622-0.124,0.931-0.193v7.209l-36.109,46.407
	l-36.111-46.408v-7.209c0.306,0.068,0.614,0.126,0.921,0.191C221.065,332.604,221.32,332.657,221.576,332.708z M110.415,355.278
	c0-2.674,2.176-4.851,4.851-4.851h20.948c2.63,0,4.766,2.107,4.838,4.721c0,0.009-0.001,0.017,0,0.026
	c0.003,0.102,0.008,0.203,0.014,0.308v46.352h-30.649v-42.509v-4.047H110.415z M52.723,490.981v-51.492
	c0-29.01,16.291-55.086,41.524-68.018v38.446v85.915H57.573C54.898,495.832,52.723,493.655,52.723,490.981z M110.415,418.002h30.649
	v77.829h-30.649C110.415,495.832,110.415,418.002,110.415,418.002z M157.232,461.321v-51.403V363.03h16.416l40.484,64.645
	c1.173,1.872,3.06,3.183,5.225,3.628c0.54,0.111,1.085,0.165,1.628,0.165c0.003,0,0.005-0.001,0.009-0.001
	c0.359,0,0.716-0.033,1.069-0.081c0.093-0.012,0.184-0.027,0.276-0.042c0.351-0.059,0.7-0.135,1.039-0.239
	c0.004-0.001,0.008-0.002,0.012-0.003c0.345-0.107,0.679-0.246,1.008-0.4c0.082-0.038,0.163-0.078,0.244-0.119
	c0.326-0.165,0.645-0.345,0.947-0.555l22.299-15.452v46.745L157.232,461.321L157.232,461.321z M264.056,461.321v-46.763
	l22.327,15.471c0.304,0.21,0.623,0.39,0.949,0.555c0.081,0.041,0.161,0.08,0.243,0.119c0.329,0.153,0.663,0.292,1.008,0.4
	c0.003,0.001,0.008,0.002,0.012,0.003c0.341,0.106,0.689,0.18,1.039,0.239c0.092,0.016,0.183,0.03,0.276,0.042
	c0.354,0.047,0.71,0.081,1.069,0.081c0.003,0,0.005,0.001,0.009,0.001c0.542,0,1.088-0.055,1.628-0.165
	c2.164-0.445,4.052-1.756,5.225-3.628l40.484-64.645h16.389v46.888v51.403h-90.656V461.321z M459.274,490.981
	c0,2.674-2.176,4.851-4.851,4.851h-36.727v-85.914v-38.474c25.265,12.922,41.578,39.009,41.578,68.046V490.981z"/>
</svg>