<?xml version="1.0" encoding="utf-8"?>
<!-- Uploaded to: SVG Repo, www.svgrepo.com, Generator: SVG Repo Mixer Tools -->
<svg width="800px" height="800px" viewBox="-52.56 0 360.887 360.887" xmlns="http://www.w3.org/2000/svg"><defs><style>.a{fill:#ffffff;}.b{fill:#7a7473;}.c{fill:#85807f;}.d{fill:#211715;}.e{fill:#3d8dcc;}.f{fill:#febe69;}.g{fill:#fecb87;}</style></defs><path class="a" d="M185.584,82.95a7.606,7.606,0,0,1,5.5-2.013,7.059,7.059,0,0,1,6.341,3.523c2.155,3.736,2.064,10.622.618,14.882-1.025,3.017-2.7,7.633-6.748,10.943a8.384,8.384,0,0,1-6.465,1.866l-.62-.1a49.155,49.155,0,0,1-2.225,6.038c-1.742,4.73-11.847,22.031-24.32,27.2,0,.991,0,1.722,0,1.722,0,.722,0,3.023,0,5.174-5.922,4.674-17.645,13.9-18.783,14.7h-3.466c-1.117-.792-12.418-9.68-18.439-14.43,0-1.847,0-4.52,0-6.937-6.058-2.41-11.394-6.725-16.445-12.771a57.855,57.855,0,0,1-10.978-20.711,8.224,8.224,0,0,1-7-1.751c-4.045-3.31-5.723-7.926-6.747-10.943-1.446-4.26-1.537-11.146.617-14.882a7.059,7.059,0,0,1,6.341-3.523,7.608,7.608,0,0,1,5.5,2.013s-8.8-49.135,48.661-49.135S185.584,82.95,185.584,82.95Z"/><path class="b" d="M129.619,250.323c-2.446-6.7-4.353-12.617-7.514-22.325-7.212-22.146-13.913-46.5-19.042-69.279-2.3,1.475-5.2,3.508-8.133,5.821l-2.249.884-7.526,2.955c-18.241,7.658-35.406,15.607-43.8,28.388L12.238,230.188c.654,13.02,1.378,22.878,2.308,34.338.589,7.246,1.212,14.5,2.186,21.7A81.113,81.113,0,0,0,20.3,303.012c2.9,8.864,9.375,17.491,18.763,20.1,9.369,2.6,22.356,1.291,29.1-7.671.041,3.887.072,7.105.091,9.417h95.427c1.47,4.011,2.979,8.083,4.411,11.858,1.473,3.855,2.759,7.365,3.695,10.068a1.679,1.679,0,0,0,2.007,1.058,335.041,335.041,0,0,0,37.939-13.037c8.175-3.358,18.828-8.556,26.155-14.39,6.2-4.939,11.459-12.71,13.063-17.794,2.049-6.492,2.754-11.765,2.291-22.2-1.912-15.541-3.879-28.315-6.291-39.47-3.549-16.417-8.024-35.085-14.011-44.188-8.4-12.781-25.562-20.73-43.8-28.388l-7.526-2.955-2.249-.884c-2.934-2.313-5.831-4.346-8.133-5.821-2.34,10.392-5.008,21.112-7.9,31.8-3.449,12.739-7.22,25.435-11.141,37.477-5.343,16.409-7.1,21.977-13.938,38.844h-2.2C133.251,259.954,131.307,254.951,129.619,250.323Z"/><path class="c" d="M75.153,51.1c-.145,1.207-.255,2.3-.327,3.192-.888,10.857,1.589,19.511,4.935,27.243a8.785,8.785,0,0,1,3-.6,7.608,7.608,0,0,1,5.5,2.013l2.39,2.3.093-1.009a80.56,80.56,0,0,1,1.637-11.154c.859-4.069,1.944-8.285,5.626-11.663l7.976-5.6c2.117-.121,4.6-.442,6.279-.386,15.2.5,30.669-2.377,42.435-7.9l9.359,5.451A63.215,63.215,0,0,1,178.644,71.3c1.2,2.252,3.942,9.9,5.909,12.935a7.327,7.327,0,0,1,6.53-3.3,8.682,8.682,0,0,1,3.124.648c3.822-20.008,4.624-32.109-3.11-47.7a46.58,46.58,0,0,0-5.717-8.433,37.718,37.718,0,0,0-14.367-9.879l-10.535-4.584C149.931.7,130.865.7,117.737,5.558c-12.312,4.554-18.965,10.982-26.95,16.988a25.865,25.865,0,0,1-9.612,4.85l-3,10.67C76.719,40.635,75.691,46.626,75.153,51.1Z"/><path class="d" d="M127.929,123.98a19.743,19.743,0,0,0,9.509,2.2,15.453,15.453,0,0,0,9.579-2.818,2.412,2.412,0,0,0,0-3.394,2.461,2.461,0,0,0-3.394,0c.723-.564.144-.12-.042,0s-.389.236-.59.342c-.161.084-.88.373-.236.133-.271.1-.539.207-.815.3a14.112,14.112,0,0,1-2.279.52c.345-.05-.112.009-.238.022-.224.022-.448.041-.672.055-.539.035-1.08.049-1.62.046q-.726,0-1.451-.053-.333-.023-.664-.055c-.011,0-.8-.109-.343-.037a16.314,16.314,0,0,1-2.129-.473c-.3-.089-.589-.2-.883-.3a1.308,1.308,0,0,1-.285-.111c.483.328.252.113.057.021-.365-.172-.725-.351-1.082-.54a2.451,2.451,0,0,0-3.283.861,2.426,2.426,0,0,0,.861,3.284Z"/><path class="d" d="M136.254,101.531a44.761,44.761,0,0,1,1.055,4.825l-.086-.638a2.912,2.912,0,0,1,.019.666l.085-.638a1.545,1.545,0,0,1-.073.3l.242-.573a1.157,1.157,0,0,1-.106.192l.375-.485a1,1,0,0,1-.157.155l.486-.375a3.176,3.176,0,0,1-.383.2l.574-.242a2.8,2.8,0,0,1-.644.188l.638-.086a2.551,2.551,0,0,1-.6,0l.638.086c-.228-.032-.452-.087-.68-.118a2.655,2.655,0,0,0-1.849.242,2.4,2.4,0,0,0-.861,3.284,2.292,2.292,0,0,0,1.434,1.1c.512.069,1.01.2,1.531.223a4.875,4.875,0,0,0,2.247-.533,3.227,3.227,0,0,0,1.794-2.13,5.384,5.384,0,0,0-.023-2.3c-.263-1.554-.622-3.095-1.022-4.62a2.4,2.4,0,0,0-4.629,1.276Z"/><path class="d" d="M110.568,87.886c-.8,2.619-.28,8.642,4.681,9.155,6.557-.039,6.905-7.322,4.7-10.746C118.14,83.491,112.826,82.325,110.568,87.886Z"/><path class="d" d="M163.277,87.886c.806,2.619.281,8.643-4.68,9.155-6.557-.039-6.906-7.322-4.7-10.747C155.705,83.491,161.019,82.325,163.277,87.886Z"/><path class="d" d="M89.959,81.253a10.661,10.661,0,0,0-11.783-1.626,10.35,10.35,0,0,0-5.2,7.162,27.164,27.164,0,0,0,4.042,20.861c2.926,4.363,7.167,7.562,12.637,6.815a2.415,2.415,0,0,0,1.677-2.952,2.465,2.465,0,0,0-2.953-1.677c-3.831.524-6.791-3.58-8.346-6.5a23.5,23.5,0,0,1-2.812-9.22,20.335,20.335,0,0,1,.236-5.375,10.8,10.8,0,0,1,1.362-3.6c-.154.206.331-.364.389-.426a1.88,1.88,0,0,1,.5-.443,5.212,5.212,0,0,1,2.084-.841,5.548,5.548,0,0,1,4.772,1.213c2.286,2.068,5.69-1.317,3.394-3.394Z"/><path class="d" d="M187.281,84.647a5.6,5.6,0,0,1,7.809.576c-.327-.414.126.22.178.305a7.121,7.121,0,0,1,.494.949,12.321,12.321,0,0,1,.628,2.263,20.377,20.377,0,0,1,.236,5.375,23.469,23.469,0,0,1-2.731,9.063c-1.551,2.968-4.536,7.19-8.428,6.658a2.483,2.483,0,0,0-2.952,1.677,2.416,2.416,0,0,0,1.676,2.952c8.837,1.207,13.97-7.5,16.261-14.779a25.48,25.48,0,0,0,.69-11.527,11.6,11.6,0,0,0-4.36-7.872,10.561,10.561,0,0,0-12.9.966c-2.3,2.076,1.107,5.463,3.394,3.394Z"/><path class="d" d="M182.813,107.836A47.243,47.243,0,0,1,181,114.122c-.23.646-.631,1.718-.8,2.121s-.362.8-.527,1.2c-.039.1-.267.681-.108.29.169-.411-.1.234-.14.312q-.135.3-.277.594c-.246.514-.505,1.021-.771,1.525-.6,1.136-1.245,2.251-1.916,3.348A60.544,60.544,0,0,1,163.4,139a24.12,24.12,0,0,1-9.7,5.033c-3.009.694-1.736,5.324,1.276,4.629,7.352-1.7,13.475-7.062,18.281-12.637a66.472,66.472,0,0,0,10.285-15.487c.257-.565.483-1.142.724-1.713-.318.755.41-.935.429-.981q.3-.717.573-1.444a48.2,48.2,0,0,0,2.18-7.292,2.459,2.459,0,0,0-1.676-2.953,2.424,2.424,0,0,0-2.952,1.677Z"/><path class="d" d="M86.265,108.939A60.955,60.955,0,0,0,94.891,129.2c4.392,6.589,10.161,12.75,17.139,16.624a33.918,33.918,0,0,0,11.5,3.917,2.48,2.48,0,0,0,2.953-1.676,2.417,2.417,0,0,0-1.677-2.952c-14.448-2.133-25.253-14.658-30.732-27.5a57.962,57.962,0,0,1-3.178-9.95c-.682-3.012-5.311-1.737-4.628,1.276Z"/><path class="d" d="M170.375,17.884A36,36,0,0,1,188.638,34.35a50.5,50.5,0,0,1,5.989,23.512,91.737,91.737,0,0,1-1.307,15.015A2.476,2.476,0,0,0,195,75.829a2.419,2.419,0,0,0,2.952-1.676c1.463-9.3,2.245-18.725.161-28-1.985-8.826-6.172-17.75-12.678-24.152a42.107,42.107,0,0,0-13.781-8.751,2.415,2.415,0,0,0-2.952,1.676,2.46,2.46,0,0,0,1.676,2.953Z"/><path class="d" d="M162.175,9.288C153.7,1.136,141.017-.938,129.7.355a58.169,58.169,0,0,0-17.739,5.011,80.352,80.352,0,0,0-15.635,9.853c-2.458,1.9-4.863,3.877-7.371,5.714a27.388,27.388,0,0,1-8.421,4.148c-2.944.9-1.688,5.538,1.276,4.629a30.842,30.842,0,0,0,7.848-3.436c2.352-1.527,4.535-3.327,6.737-5.059a102.253,102.253,0,0,1,13.916-9.662c9.857-5.395,21.462-8.081,32.66-6.2,5.826.981,11.5,3.179,15.806,7.324,2.228,2.142,5.626-1.248,3.4-3.394Z"/><path class="d" d="M76.105,36.854c-1.553,2.841-2.14,6.231-2.665,9.386a83.238,83.238,0,0,0-1.156,10.382A57.838,57.838,0,0,0,76.9,80.869a2.479,2.479,0,0,0,2.953,1.676,2.415,2.415,0,0,0,1.676-2.952,54.564,54.564,0,0,1-4.455-22.512,71.374,71.374,0,0,1,1-9.564c.454-2.73,1.014-6.106,2.181-8.24,1.482-2.712-2.661-5.137-4.145-2.423Z"/><path class="d" d="M153.487,45.457a83.477,83.477,0,0,1-22.9,6.564,100.077,100.077,0,0,1-12.564,1.041c-2.088.046-4.17-.046-6.257-.036-1.931.01-3.859.272-5.785.392-3.068.19-3.09,4.992,0,4.8,1.982-.123,3.967-.4,5.956-.393,2.107.009,4.208.083,6.316.032a110.4,110.4,0,0,0,13.61-1.207A87.48,87.48,0,0,0,155.909,49.6a2.42,2.42,0,0,0,.861-3.284,2.455,2.455,0,0,0-3.283-.861Z"/><path class="d" d="M96.311,59.724c-3.446,3.243-5.111,7.527-6.1,12.061a101.952,101.952,0,0,0-1.865,12.453,2.417,2.417,0,0,0,2.4,2.4,2.452,2.452,0,0,0,2.4-2.4,90.065,90.065,0,0,1,1.622-10.846c.83-3.872,1.98-7.49,4.938-10.274,2.255-2.121-1.144-5.511-3.394-3.394Z"/><path class="d" d="M162.36,54.677a62.9,62.9,0,0,1,12.2,14.315c2.787,4.547,4.416,9.563,6.748,14.336a2.422,2.422,0,0,0,3.283.861,2.45,2.45,0,0,0,.861-3.284c-2.392-4.9-4.071-10.027-6.96-14.681a67.223,67.223,0,0,0-12.742-14.942c-2.311-2.034-5.718,1.349-3.394,3.4Z"/><path class="a" d="M138.247,266.842c6.836-16.867,8.595-22.435,13.938-38.844,6.621-20.333,12.812-42.528,17.751-63.654a7.249,7.249,0,0,0-1.632-5.974c-2.222-2.574-5.022-6.3-7.293-8.838-.965.781-20.641,16.295-22.133,17.353h-3.466c-1.492-1.058-21.168-16.572-22.133-17.353-2.271,2.541-5.071,6.264-7.293,8.838a7.246,7.246,0,0,0-1.632,5.974c4.939,21.126,11.13,43.321,17.751,63.654,5.343,16.409,7.1,21.977,13.938,38.844Z"/><path class="e" d="M144.189,251.638c-1.578,4.269-3.412,8.963-5.942,15.2h-2.2c-6.293-15.528-8.283-21.48-12.729-35.129,2.156-18.482,5.007-40.46,5.007-41.108a15.405,15.405,0,0,0-.529-3.453q-.2-.774-.357-1.547c-.569-2.567-.674-3.881-1.335-6.6l-.041-.133c3.174-4.28,7.013-9.356,9.353-11.987h3.466c2.32,2.609,6.113,7.62,9.272,11.877-.179.5-.3.831-.3.831a33.832,33.832,0,0,0-1.623,5.277,22.025,22.025,0,0,0-1.282,6.114c-.018,1.087,2.982,21.928,5.763,41.534C148.2,240.237,146.458,245.5,144.189,251.638Z"/><path class="d" d="M121.234,266.358C108.958,245.078,96.823,223.7,85.5,201.894c-.76-1.465-1.615-2.922-2.283-4.43-.283-.637-.284-.515.2-1.062.582-.656,1.2-1.281,1.813-1.91,2.5-2.582,5.112-5.059,7.735-7.519a2.422,2.422,0,0,0-.486-3.769l-4.865-2.777L85.293,179.1c-.423-.241-.847-.48-1.269-.724l-.423-.241q-.535-.333.081.071l.327,1.211c-.133.281-.152.322-.055.125.059-.12.119-.238.182-.354.107-.2.22-.4.335-.6.269-.458.559-.9.862-1.34a26.632,26.632,0,0,1,1.919-2.4,60.777,60.777,0,0,1,5.525-5.419,97.147,97.147,0,0,1,11.5-8.639l-3.525-1.435q5.315,23.565,12.106,46.764c4,13.715,8.3,27.373,13.025,40.857,2.42,6.908,5.1,13.719,7.848,20.5a2.477,2.477,0,0,0,2.953,1.677,2.417,2.417,0,0,0,1.676-2.953c-4.752-11.734-8.973-23.6-12.892-35.632-4.965-15.248-9.552-30.6-13.635-46.114q-3.456-13.129-6.453-26.377a2.418,2.418,0,0,0-3.525-1.434,91.617,91.617,0,0,0-16.827,13.538,42.137,42.137,0,0,0-3.482,4.146,12.113,12.113,0,0,0-2.261,4.117c-.624,2.777,2.059,3.923,4.011,5.038l6.768,3.863-.486-3.77c-2.447,2.3-4.882,4.606-7.231,7-2.3,2.352-5.2,4.83-3.674,8.436,1.208,2.857,2.836,5.594,4.276,8.342q2.257,4.311,4.557,8.6c6.1,11.39,12.388,22.679,18.764,33.918q5.373,9.471,10.822,18.9c1.543,2.675,5.693.261,4.145-2.422Z"/><path class="d" d="M208.646,280.89q.254-23.77.6-47.541.078-4.86.175-9.719c.064-3.09-4.736-3.09-4.8,0-.3,14.273-.447,28.549-.611,42.824q-.083,7.218-.159,14.436c-.033,3.089,4.767,3.092,4.8,0Z"/><path class="d" d="M129.077,191.007c5.128,0,10.256-.108,15.384-.11a2.4,2.4,0,0,0,0-4.8c-5.128,0-10.256.108-15.384.11a2.4,2.4,0,1,0,0,4.8Z"/><path class="d" d="M123.786,179.643c.486,2.039.807,4.108,1.238,6.159a20.209,20.209,0,0,1,.891,4.9c-.064,1.447-.338,2.91-.516,4.345-.887,7.181-1.792,14.36-2.671,21.542q-.93,7.593-1.821,15.188a2.413,2.413,0,0,0,2.4,2.4,2.457,2.457,0,0,0,2.4-2.4q1.53-13.109,3.182-26.2c.608-4.89,1.5-9.833,1.815-14.753a19.023,19.023,0,0,0-.83-5.272c-.535-2.385-.893-4.8-1.46-7.18-.717-3-5.346-1.732-4.628,1.276Z"/><path class="d" d="M152.891,230.916q-1.8-12.712-3.609-25.426-.671-4.766-1.325-9.534c-.022-.163-.106-.789-.092-.686.018.135-.066-.49-.081-.6q-.091-.693-.181-1.388c-.08-.627-.177-1.258-.224-1.888a11.67,11.67,0,0,1,.587-3.948,45.755,45.755,0,0,1,1.961-6.638,2.472,2.472,0,0,0-.861-3.284,2.419,2.419,0,0,0-3.283.861,49.57,49.57,0,0,0-2,6.278,20.584,20.584,0,0,0-1.235,6.355,38.528,38.528,0,0,0,.479,3.988c.95,7.137,1.975,14.265,2.988,21.394q1.122,7.9,2.245,15.8a2.417,2.417,0,0,0,2.953,1.677,2.464,2.464,0,0,0,1.676-2.953Z"/><path class="d" d="M157.2,268.78c12.843-22.261,25.54-44.629,37.294-67.489.886-1.724,1.938-3.445,1.466-5.462-.4-1.725-1.834-2.985-3.012-4.213-2.655-2.77-5.437-5.413-8.235-8.037l-.485,3.77L191,183.486c1.951-1.115,4.635-2.261,4.011-5.038a12.173,12.173,0,0,0-2.261-4.117,42.137,42.137,0,0,0-3.482-4.146,91.617,91.617,0,0,0-16.827-13.538,2.418,2.418,0,0,0-3.525,1.434q-5.315,23.565-12.106,46.764c-4,13.715-8.3,27.373-13.026,40.857-2.419,6.908-5.1,13.719-7.848,20.5a2.417,2.417,0,0,0,1.676,2.953,2.46,2.46,0,0,0,2.953-1.677c4.752-11.734,8.973-23.6,12.892-35.632,4.964-15.248,9.551-30.605,13.634-46.114q3.458-13.13,6.453-26.377l-3.525,1.435a97.338,97.338,0,0,1,11.5,8.639,61.174,61.174,0,0,1,5.413,5.292,27.2,27.2,0,0,1,2.031,2.526c.277.4.543.8.791,1.22.141.236.277.475.406.718l.123.236q.233.474,0-.007l.327-1.211q.557-.363.2-.146-.269.165-.546.316c-.422.243-.846.483-1.269.724l-2.327,1.328-4.864,2.777a2.422,2.422,0,0,0-.486,3.769c2.331,2.186,4.651,4.385,6.9,6.66q.843.855,1.671,1.723c.374.394,1.109.9,1.305,1.4.256.652-.96,2.348-1.359,3.123q-4.183,8.109-8.519,16.138-8.8,16.345-18.015,32.467-5.088,8.958-10.242,17.878c-1.546,2.68,2.6,5.1,4.145,2.422Z"/><path class="d" d="M159.314,151.229c1.315,1.484,2.558,3.029,3.8,4.575,1.152,1.433,2.435,2.812,3.518,4.295a5.7,5.7,0,0,1,.938,2.056,3.891,3.891,0,0,1,.118.81c.005.159-.14,1.021.044.547a9.833,9.833,0,0,1-.838,1.441,105.578,105.578,0,0,1-8.853,12.562c-1.039,1.253-2.117,2.476-3.272,3.624-.5.494-1.009.975-1.542,1.431a7.637,7.637,0,0,1-1.255.94l3.284.861c-4.817-6.431-9.353-13.156-14.681-19.183l-.486,3.769c2.8-2,5.458-4.217,8.163-6.338q5.734-4.5,11.453-9.013c1-.791,2.01-1.575,3-2.377a2.415,2.415,0,0,0,0-3.394,2.457,2.457,0,0,0-3.394,0c-6.2,5-12.5,9.878-18.781,14.773l-1.152.9-.5.39c-.313.243.392-.3-.068.052-.379.291-.754.588-1.142.865a2.446,2.446,0,0,0-.486,3.77c5.058,5.722,9.357,12.107,13.93,18.212a2.448,2.448,0,0,0,3.284.861c5.166-3.378,9-8.955,12.478-13.934,1.448-2.074,2.851-4.184,4.166-6.345a13.836,13.836,0,0,0,.985-1.779,8.242,8.242,0,0,0-.41-6.351c-.932-2.15-2.709-3.858-4.164-5.665-1.558-1.933-3.094-3.887-4.742-5.746C160.654,145.519,157.27,148.924,159.314,151.229Z"/><path class="d" d="M111.582,147.835c-1.459,1.645-2.829,3.365-4.2,5.079-1.3,1.62-2.813,3.171-3.958,4.905a8.467,8.467,0,0,0-.516,8.978,110.468,110.468,0,0,0,9.753,13.872,33.47,33.47,0,0,0,7.239,6.986,2.459,2.459,0,0,0,3.284-.861c4.573-6.105,8.872-12.49,13.93-18.212a2.447,2.447,0,0,0-.486-3.77c-.306-.218-.6-.45-.9-.679q-.174-.132-.346-.266c-.3-.228.409.318-.025-.019-.332-.258-.664-.515-1-.774q-2.618-2.036-5.224-4.084-5.62-4.41-11.227-8.836c-.977-.772-1.96-1.537-2.929-2.319a2.473,2.473,0,0,0-3.394,0,2.417,2.417,0,0,0,0,3.394c6.272,5.061,12.652,10,19.01,14.952,1.2.931,2.375,1.894,3.609,2.776l-.486-3.769c-5.328,6.027-9.864,12.752-14.681,19.183l3.284-.861c-.213-.139-.421-.283-.628-.43s-.01,0,.028.029c-.127-.1-.251-.2-.373-.3-.494-.41-.971-.842-1.434-1.287-1.008-.97-1.955-2-2.867-3.064-1.866-2.167-3.581-4.455-5.225-6.792-1.407-2-2.765-4.034-4.054-6.11-.363-.585-.722-1.173-1.061-1.773a2.083,2.083,0,0,1-.131-.241c.108.266.031.048.031-.22a5.2,5.2,0,0,1,.361-1.99c.733-1.816,2.461-3.349,3.671-4.856,1.422-1.769,2.834-3.547,4.34-5.246C117.019,148.925,113.636,145.518,111.582,147.835Z"/><path class="d" d="M114.572,147.242v3.831a2.477,2.477,0,0,0,.7,1.7,2.4,2.4,0,0,0,3.394,0,2.5,2.5,0,0,0,.7-1.7v-3.831a2.477,2.477,0,0,0-.7-1.7,2.4,2.4,0,0,0-3.394,0,2.5,2.5,0,0,0-.7,1.7Z"/><path class="d" d="M155.26,147.009v3.957a2.477,2.477,0,0,0,.7,1.7,2.4,2.4,0,0,0,3.394,0,2.494,2.494,0,0,0,.7-1.7v-.22a2.475,2.475,0,0,0-.7-1.7,2.4,2.4,0,0,0-3.394,0,2.492,2.492,0,0,0-.7,1.7v.22a2.477,2.477,0,0,0,.7,1.7,2.4,2.4,0,0,0,3.394,0,2.494,2.494,0,0,0,.7-1.7v-3.957a2.48,2.48,0,0,0-.7-1.7,2.4,2.4,0,0,0-3.394,0,2.5,2.5,0,0,0-.7,1.7Z"/><path class="d" d="M255.452,276.913a231.289,231.289,0,0,0-4.8-31.549c-2.281-10.6-4.572-21.227-7.832-31.579-2.791-8.866-6.207-17.589-12.751-24.386-6.977-7.246-16.033-12.284-25.023-16.587-7.46-3.57-15.107-6.681-22.8-9.7a2.417,2.417,0,0,0-2.952,1.677,2.456,2.456,0,0,0,1.676,2.952c5.985,2.351,11.928,4.751,17.785,7.415,8.911,4.055,18,8.578,25.345,15.16a38.478,38.478,0,0,1,8,9.692,70.621,70.621,0,0,1,5.147,12.139c3.436,10.166,5.777,20.666,8.055,31.139a242.787,242.787,0,0,1,5.354,33.63,2.46,2.46,0,0,0,2.4,2.4,2.419,2.419,0,0,0,2.4-2.4Z"/><path class="f" d="M178.081,194.3a5.255,5.255,0,0,0-5.36,5.326,5.169,5.169,0,0,0,5.36,5.427,5.115,5.115,0,0,0,5.36-5.427A5.251,5.251,0,0,0,178.081,194.3Z"/><path class="d" d="M178.081,191.9a7.784,7.784,0,0,0-7.421,5.431,7.944,7.944,0,0,0,2.546,8.483,8.239,8.239,0,0,0,8.935.6,7.89,7.89,0,0,0,3.559-8.211,7.708,7.708,0,0,0-7.619-6.306,2.4,2.4,0,1,0,0,4.8c.156,0,.311.014.466.018.538.013-.554-.13-.04-.008.237.057.473.1.706.18a1.323,1.323,0,0,0,.268.1l-.313-.132c.085.038.169.079.252.122.236.122.461.334.7.438-.477-.207-.271-.217-.066-.028.066.062.131.125.194.19a1.921,1.921,0,0,0,.272.3c-.332-.2-.255-.374-.09-.108.132.213.255.425.378.643.1.181.019.282-.075-.2.034.173.13.349.179.52.063.219.072.471.15.681-.19-.513-.034-.4-.033-.145,0,.119.012.239.012.358a4.207,4.207,0,0,0-.038.731l.049-.357c-.014.092-.03.184-.048.275-.031.157-.069.311-.113.465-.03.107-.063.214-.1.319l-.046.124q-.14.353.09-.211a5.241,5.241,0,0,0-.307.563c-.056.089-.125.172-.178.262-.154.263.414-.463.1-.141-.164.169-.394.341-.539.524.328-.414.317-.231.08-.074-.071.047-.143.092-.217.135-.111.065-.227.121-.34.183-.4.221.454-.138.153-.06-.239.061-.468.16-.71.216-.091.021-.182.036-.273.057q-.386.063.216-.024c-.1.011-.194.019-.291.026a6.819,6.819,0,0,1-.743.008,2.53,2.53,0,0,0-.431-.035c.047-.007.6.115.22.022-.245-.059-.488-.108-.728-.188-.1-.035-.208-.09-.314-.115.632.151.254.106.039-.012s-.393-.269-.6-.384c.486.27.32.264.187.133-.092-.09-.189-.173-.279-.266-.073-.075-.137-.168-.215-.238-.226-.2.345.513.1.129-.142-.223-.271-.446-.4-.677-.237-.426.182.551.03.081-.027-.086-.061-.171-.088-.258a4.566,4.566,0,0,0-.193-.818c.024.041.052.616.032.205-.008-.149-.022-.3-.025-.447,0-.123,0-.245,0-.367,0-.071.006-.142.012-.213.026-.261.013-.188-.037.218.091-.252.106-.55.188-.809a2.728,2.728,0,0,0,.139-.388c-.034.247-.209.45-.013.079.123-.233.323-.45.433-.687-.228.494-.211.265-.031.069.092-.1.188-.2.287-.288.2-.187.413-.185-.067.027a3.2,3.2,0,0,0,.34-.233c.117-.074.238-.143.361-.207.083-.044.166-.084.251-.123l-.312.132a4,4,0,0,0,.83-.249l.145-.029q.39-.064-.191.021a2.367,2.367,0,0,0,.621-.032,2.4,2.4,0,1,0,0-4.8Z"/><path class="d" d="M43.424,197.978c4.688-7.059,11.814-12.119,19.076-16.26a184.969,184.969,0,0,1,23.961-11.287l6.858-2.693A2.471,2.471,0,0,0,95,164.786a2.417,2.417,0,0,0-2.952-1.677c-5.768,2.266-11.5,4.575-17.161,7.1-8.967,4-17.85,8.443-25.568,14.584a47.24,47.24,0,0,0-10.035,10.76c-1.713,2.581,2.442,4.988,4.145,2.423Z"/><path class="d" d="M64.384,223.626c.31,13.2.5,26.412.694,39.619q.334,22.529.6,45.059.1,8.277.174,16.554c.025,3.087,4.825,3.095,4.8,0-.094-11.627-.25-23.254-.4-34.88q-.3-23.187-.681-46.374c-.112-6.66-.229-13.319-.385-19.978-.073-3.084-4.873-3.095-4.8,0Z"/><path class="d" d="M9.838,230.188q.737,14.619,1.9,29.21c.818,10.407,1.679,20.809,3.189,31.142,1.23,8.416,3.488,17.146,8.633,24.074a30.419,30.419,0,0,0,9.206,8.438,29.293,29.293,0,0,0,11.585,3.456c8.842.934,18.6-1.459,24.654-8.312,2.038-2.307-1.344-5.715-3.394-3.394-4.818,5.456-12.157,7.385-19.232,7.059a25.293,25.293,0,0,1-9.9-2.268,24.747,24.747,0,0,1-8.553-7.107c-4.9-6.307-7.009-14.4-8.212-22.162-1.49-9.615-2.254-19.329-3.026-29.022q-1.239-15.545-2.049-31.114c-.155-3.074-4.956-3.093-4.8,0Z"/><path class="a" d="M59.962,195.239c-.787,5.445-4.884,11.909-6.882,14.614a23.14,23.14,0,0,1-2.6,3.029c-2.054,1.959-1.773,4.6-2.163,7.6-.212,1.635-.041,3.122-.135,4.3-5.762,2.032-21.79,3.464-29.238,4.221-1.107-3.358-5.537-13.033-6.063-13.552-4.621-4.558-9.907-15.727-10.43-26.5l.195-3.982c.07-1.43,1.207-5.411,4.092-6.162a5.564,5.564,0,0,1,5.96,2.3c.359-1.7.749-3.54.749-3.54a6.359,6.359,0,0,1,5.168-4.463c2.416-.382,3.361,1.146,4.58,2.786,0-2.056.858-4.463,2.734-5.452,2.883-1.52,8.536-1.573,8.448,4.929-1.537-11.072-3.237-24.585-3.277-27.6a7.167,7.167,0,0,1,6.041-6.786c3.351-.4,6.849,4.523,7.234,6.69,1.846,10.383,2.933,17.9,4.38,30.49,1.93.468,3.769.992,5.827,1.56a7.759,7.759,0,0,1,3.993,3.239c1.9,4.159,2.566,7.841,1.386,12.278Z"/><path class="d" d="M51.042,177.178c-.977-8.41-2.081-16.8-3.487-25.153a39.287,39.287,0,0,0-1.018-5.568,13.175,13.175,0,0,0-2.446-4.186c-2.5-3.056-6.071-4.617-9.839-2.91a9.556,9.556,0,0,0-5.546,8.626c.039,1.665.254,3.336.431,4.989.619,5.794,1.375,11.573,2.148,17.347.812,6.066,1.625,12.136,2.6,18.178a2.417,2.417,0,0,0,2.952,1.676,2.458,2.458,0,0,0,1.677-2.952c-1.645-10.166-2.955-20.283-4.157-30.5-.243-2.071-.48-4.144-.671-6.221-.133-1.437-.433-3.019.177-4.354a4.961,4.961,0,0,1,2.889-2.637,1.636,1.636,0,0,1,1.378-.024,5.734,5.734,0,0,1,1.244.792,9.563,9.563,0,0,1,2.453,3.25c.122.264.023.045,0-.008.039.1.078.207.108.313.084.3.14.587.2.89.182,1.005.354,2.012.527,3.018,1.45,8.444,2.592,16.926,3.58,25.436a2.474,2.474,0,0,0,2.4,2.4,2.414,2.414,0,0,0,2.4-2.4Z"/><path class="d" d="M14.756,179.878a7.656,7.656,0,0,0-4.5-3.13,8.272,8.272,0,0,0-5.341.654,9.258,9.258,0,0,0-4.539,6.544,22.383,22.383,0,0,0,.718,9.216,12.629,12.629,0,0,0,2.283,5.081,7.321,7.321,0,0,0,4.016,2.339c3.691.716,7.184-1.638,8.805-4.87a2.458,2.458,0,0,0-.861-3.283,2.423,2.423,0,0,0-3.284.861,10.134,10.134,0,0,1-.693,1.205c.231-.338-.144.155-.245.257-.08.08-.569.485-.3.288a8.6,8.6,0,0,1-1.439.848c.363-.168-.084,0-.232.046-.041.013-.381.049-.109.024s-.179-.011-.227-.012c-.111,0-.221-.006-.332-.017.435.041.062.007-.028-.022-.218-.071-.443-.115-.656-.2.342.141-.16-.118-.259-.166,0,0-.331-.209-.143-.077.16.112-.178-.152-.212-.185-.092-.089-.423-.459-.362-.375s-.2-.353-.256-.468a14.473,14.473,0,0,1-.658-1.916,20.156,20.156,0,0,1-.885-6.633c0-.229.017-.459.022-.688.008-.409.068-.34-.034.025.106-.382.163-.77.291-1.148.055-.162.218-.546.052-.175q.13-.292.282-.576c.1-.194.217-.385.338-.57.061-.094.125-.187.19-.278.219-.3-.213.227.047-.046.1-.109.208-.221.314-.33.028-.029.357-.322.188-.187-.081.065.386-.241.525-.315-.04.021-.3.109-.035.011a4.779,4.779,0,0,1,.484-.14,1.927,1.927,0,0,1,.614-.1,2.542,2.542,0,0,1,1.383.2,2.815,2.815,0,0,1,.935.732,2.478,2.478,0,0,0,3.284.861,2.416,2.416,0,0,0,.861-3.284Z"/><path class="d" d="M25.266,174.679a9.872,9.872,0,0,0-3.536-3.491,7.115,7.115,0,0,0-5.961.327,8.939,8.939,0,0,0-3.759,3.366,11.638,11.638,0,0,0-1.336,5.008,32.666,32.666,0,0,0,.839,11.707,13.589,13.589,0,0,0,1.5,3.933,8,8,0,0,0,4.942,3.357c3.876.827,9.039-1.857,9.575-6.023a2.412,2.412,0,0,0-2.4-2.4,2.46,2.46,0,0,0-2.4,2.4c.111-.862.171-.516-.09-.211a4.572,4.572,0,0,1-.665.617,9.152,9.152,0,0,1-1.292.775,3.069,3.069,0,0,1-3.428-.836,2.963,2.963,0,0,1-.5-.893c-.223-.606-.413-1.222-.576-1.845a26.341,26.341,0,0,1-.767-4.407,31.158,31.158,0,0,1-.005-5.54,18.4,18.4,0,0,1,.4-2.493c.036-.129.077-.255.125-.38-.087.206-.091.23-.013.07a5.518,5.518,0,0,1,.447-.731c-.169.221.28-.294.325-.338a4.236,4.236,0,0,1,2.3-1.188.992.992,0,0,1,.988.249,7.994,7.994,0,0,1,1.148,1.39,2.474,2.474,0,0,0,3.284.861,2.419,2.419,0,0,0,.861-3.284Z"/><path class="d" d="M34.882,169.512c-2.461-2.773-6.668-2.807-9.823-1.308-3.205,1.523-4.563,5.427-4.194,8.776.413,3.75,1.062,7.485,1.8,11.182.333,1.656.516,3.308,1.738,4.574a8.858,8.858,0,0,0,4.643,2.441,7.937,7.937,0,0,0,6.478-1.6,11.824,11.824,0,0,0,2.489-3.507c1.546-2.68-2.6-5.1-4.144-2.422-.276.478-.513.978-.8,1.453-.048.08-.541.759-.259.424-.064.077-.642.607-.4.431a3.387,3.387,0,0,1-3.381.223A4.815,4.815,0,0,1,28,189.56c.132.085.091.041-.121-.133q-.3-.333-.051-.015-.213-.374.029.12-.066-.29-.13-.58-.137-.62-.265-1.242c-.363-1.745-.689-3.5-.989-5.254-.277-1.619-.54-3.242-.74-4.872a6.557,6.557,0,0,1,.33-3.88,3.5,3.5,0,0,1,5.421-.8c2.055,2.315,5.44-1.09,3.394-3.394Z"/><path class="d" d="M48.963,189.857c-2.371-.929-5.214-1.811-7.25-3.384a5.445,5.445,0,0,1-1.76-2.793,3.3,3.3,0,0,1,.036-2c.663-1.506,2.452-2.066,4.27-1.961,2.919.17,5.984,1.227,8.777,2.048a6.274,6.274,0,0,1,4.45,4.09,12.238,12.238,0,0,1,.578,7.014,43.231,43.231,0,0,1-6.4,14.833c-1.655,2.486-4.254,4.282-5.051,7.267-.844,3.167-.643,6.578-.829,9.812l1.762-2.314c-4.3,1.486-9.029,1.966-13.524,2.525-5.016.623-10.047,1.1-15.076,1.61l2.315,1.762a91.16,91.16,0,0,0-5.8-13.271,8.2,8.2,0,0,0-1.34-1.814,21.682,21.682,0,0,1-2.411-3.177A45.855,45.855,0,0,1,4.8,187.959c-.087-3.082-4.888-3.095-4.8,0a49.841,49.841,0,0,0,6.3,22.433A34.579,34.579,0,0,0,8.862,214.4c.477.637.966,1.267,1.492,1.864.18.2.362.411.555.6.326.324.088.332.118.075-.022.189-.187-.408-.1-.114a16.127,16.127,0,0,0,1.039,2c.549,1.129,1.075,2.269,1.593,3.412a76.507,76.507,0,0,1,3.069,7.4,2.442,2.442,0,0,0,2.314,1.762c5.146-.522,10.295-1.009,15.426-1.654,4.792-.6,9.858-1.067,14.45-2.653a2.5,2.5,0,0,0,1.762-2.314c.1-1.711.052-3.4.227-5.107a13.021,13.021,0,0,1,.669-4.143c.563-1.216,1.887-2.16,2.716-3.214a34.766,34.766,0,0,0,2.5-3.6,56.863,56.863,0,0,0,4.172-8.566,28.312,28.312,0,0,0,2.306-9.989,15.648,15.648,0,0,0-2.737-8.923c-2.022-2.737-4.722-3.73-7.886-4.6-3.388-.933-7.108-2.124-10.646-1.556a8.172,8.172,0,0,0-6.174,4.423c-1.49,3.256-.419,6.971,1.837,9.6a13.232,13.232,0,0,0,4.559,3.04c1.817.862,3.688,1.613,5.559,2.346a2.418,2.418,0,0,0,2.953-1.677,2.457,2.457,0,0,0-1.677-2.952Z"/><path class="g" d="M97.509,285.587c-5.707-12-10.487-22.274-12.78-27.694,5.543-3.258,59.354-31.561,69.912-36.2,9.666,17.743,23.271,45.016,33.738,66.427l.145.3c-1.314.541-2.787,1.143-4.464,1.826-4.278,1.715-23.306,9.29-27.277,10.875a1.615,1.615,0,0,0-.927,2.124c.351.968.768,2.123,1.237,3.429l-1.853.64c-2.826-2.915-5.445-3.834-10.267-5.9a63.329,63.329,0,0,0-7.1-1.627c-3.1-.512-5.382-1.022-8.511-1.31-4.14-.381-6.538-.805-8.256.886a4.765,4.765,0,0,0-1.324,3.809c.238,5.722,10.3,9.2,14.966,12.607a54.488,54.488,0,0,1-13.813,4.074,78.527,78.527,0,0,1-8.251-2.73C107.581,306.613,102.228,295.51,97.509,285.587Z"/><path class="d" d="M167.305,335.767c-.075.038-.148.079-.22.12a2.314,2.314,0,0,0-1.146,2.392,1.777,1.777,0,0,0,.285.892l.375.486a2.4,2.4,0,0,0,1.059.617l.638.086a2.4,2.4,0,0,0,1.211-.328c.073-.042.146-.083.22-.12a2.312,2.312,0,0,0,1.146-2.391,1.778,1.778,0,0,0-.285-.893l-.375-.485a2.394,2.394,0,0,0-1.059-.618l-.638-.085a2.384,2.384,0,0,0-1.211.327Z"/><path class="d" d="M114.758,315.918c-8.142-16.769-16.3-33.542-24.062-50.49-1.33-2.9-2.652-5.81-3.9-8.75l-.861,3.284c7.537-4.4,15.4-8.307,23.123-12.365,11.487-6.037,23-12.038,34.584-17.881,4.038-2.037,8.071-4.123,12.213-5.944l-3.283-.861c9.22,16.945,17.838,34.224,26.395,51.511q3.685,7.444,7.335,14.909a2.422,2.422,0,0,0,3.283.861,2.45,2.45,0,0,0,.861-3.284c-8.752-17.894-17.6-35.745-26.814-53.408q-3.406-6.532-6.916-13.012a2.464,2.464,0,0,0-3.283-.861c-9.093,4-17.88,8.8-26.7,13.351q-16.843,8.7-33.58,17.6c-3.223,1.719-6.485,3.392-9.64,5.235a2.476,2.476,0,0,0-.861,3.284c6.254,14.763,13.443,29.165,20.4,43.605q3.768,7.824,7.563,15.635a2.422,2.422,0,0,0,3.283.861,2.451,2.451,0,0,0,.861-3.284Z"/><path class="a" d="M125.312,319.024a67.945,67.945,0,0,0,9.437-3.241c-4.668-3.4-14.728-6.885-14.966-12.607a4.765,4.765,0,0,1,1.324-3.809c1.718-1.691,4.116-1.267,8.256-.886,3.129.288,5.41.8,8.511,1.31a63.329,63.329,0,0,1,7.1,1.627c4.822,2.062,7.441,2.981,10.267,5.9l1.853-.641c2.688,7.462,7.127,19.837,11,30.043q.243.636.479,1.26l-.2.156c-10.893,8.687-24.025,17.5-37.657,20.376-1.587.336-6.742-1.107-8.16-2.744-3.87-4.468-5.414-7.867-6.8-13.467-2.122-1.085-3.709-3.665-4.835-5.765a11.081,11.081,0,0,1-.512-8.278,21.791,21.791,0,0,1-3.207-2.075,5.4,5.4,0,0,1-1.217-6.76c.939-1.616,4.1-3.357,6.424-2.407l.284.116a78.33,78.33,0,0,0,8.249,2.729A36.019,36.019,0,0,0,125.312,319.024Z"/><path class="d" d="M108.089,327.619a13.616,13.616,0,0,0,.676,9.97c1.307,2.623,3.155,5.338,5.774,6.78l-1.1-1.434a32.661,32.661,0,0,0,5.254,11.829,13.024,13.024,0,0,0,4.367,4.271,18.346,18.346,0,0,0,5.338,1.741,13.769,13.769,0,0,0,5.864-.643,62.588,62.588,0,0,0,7.126-2.349,79.631,79.631,0,0,0,12.79-6.5,147.054,147.054,0,0,0,13.614-9.836,2.414,2.414,0,0,0,0-3.394,2.458,2.458,0,0,0-3.394,0c-8.425,6.706-17.48,12.973-27.789,16.379q-2,.66-4.033,1.182-.931.237-1.869.446c-.215.048-1.093.117-.318.093-.208.006-.408,0-.616-.006a5.727,5.727,0,0,1-.926-.149c-.449-.1-.894-.211-1.335-.342a11.071,11.071,0,0,1-2.645-1.1,7.891,7.891,0,0,1-1.683-1.769,24.705,24.705,0,0,1-4.6-9.172,11.294,11.294,0,0,0-.761-2.53c-.363-.621-.982-.851-1.53-1.254a10.134,10.134,0,0,1-2.421-2.956,9.26,9.26,0,0,1-1.153-7.98c.9-2.963-3.736-4.229-4.629-1.276Z"/><path class="d" d="M156.937,305.617a20.232,20.232,0,0,0-5.158-3.793,38.863,38.863,0,0,0-6.951-2.95A89.585,89.585,0,0,0,129.6,296.1c-2.292-.227-4.727-.647-7.013-.144a6.624,6.624,0,0,0-4.832,4.41c-1.442,4.383,1.3,8.1,4.608,10.624,3.493,2.668,7.62,4.307,11.18,6.861l.573-4.386a59.613,59.613,0,0,1-11.9,3.779c-.213.039-.432.064-.642.112.02,0-.677.1-.329.1.173,0-.413-.105-.566-.148-.74-.2-1.474-.433-2.2-.668q-2.157-.7-4.282-1.494a8.27,8.27,0,0,0-4.621-.655A9.009,9.009,0,0,0,105,316.845a7.667,7.667,0,0,0-.777,9.589,13.8,13.8,0,0,0,5.045,3.931,31.536,31.536,0,0,0,6.15,2.427c2.978.843,4.248-3.787,1.276-4.628a25.11,25.11,0,0,1-5.763-2.363c-1.287-.743-2.849-1.52-3.171-3.1a2.585,2.585,0,0,1,1.193-2.884c1.337-.866,2.285-.683,3.682-.146,1.559.6,3.14,1.146,4.73,1.655.722.23,1.446.454,2.176.653a6.493,6.493,0,0,0,2.881.08,56.613,56.613,0,0,0,12.969-3.959,2.44,2.44,0,0,0,.573-4.386c-2.708-1.944-5.776-3.335-8.6-5.092a18.743,18.743,0,0,1-3.817-2.933,5.322,5.322,0,0,1-1.026-1.4c-.167-.3-.061-.041-.222-.555-.036-.115-.061-.234-.087-.351-.053-.243-.008.224-.023-.2a2.963,2.963,0,0,1,.395-1.873,1.087,1.087,0,0,1,.552-.483,2.244,2.244,0,0,1,.858-.257,28.237,28.237,0,0,1,5.607.341,87.718,87.718,0,0,1,12.911,2.32c3.906,1,8.17,2.883,11.036,5.787,2.174,2.2,5.568-1.193,3.4-3.394Z"/><path class="d" d="M250.652,276.913c.422,7,.711,14.136-.84,20.818a31.725,31.725,0,0,1-3.031,8.368,43.925,43.925,0,0,1-7.149,9.5c-5.934,6.017-13.833,10.122-21.392,13.713a249.389,249.389,0,0,1-25.494,10.11q-5.838,2.02-11.745,3.829-2.523.771-5.061,1.5-1.108.317-2.221.622c-.08.022-.371.057-.424.117l-.141.038a.481.481,0,0,1,.594.157c.46.047.171.348.178-.035a3.645,3.645,0,0,0-.3-.862c-2.941-8.313-6.166-16.527-9.181-24.814q-2.015-5.536-4.006-11.08-.786-2.184-1.573-4.368a6.245,6.245,0,0,0-.619-1.713c-.038-.041-.026-.229-.111-.212-.157.032-.128,1.093-.614.8.052.031.4-.162.458-.183,4.886-1.784,9.685-3.859,14.518-5.784q16.182-6.448,32.2-13.259,2.552-1.088,5.109-2.161a2.481,2.481,0,0,0,1.676-2.952,2.414,2.414,0,0,0-2.952-1.676c-11.691,4.913-23,9.713-34.813,14.423q-8.124,3.237-16.247,6.473c-1.321.527-2.708.95-3.519,2.22-1.106,1.731-.384,3.46.237,5.182q1.854,5.139,3.706,10.281c3.145,8.7,6.416,17.355,9.623,26.034q.583,1.579,1.152,3.163a19.739,19.739,0,0,0,1.176,3.129c1.258,2.21,3.6,2.145,5.724,1.556,3.695-1.026,7.367-2.137,11.018-3.308,9.277-2.975,18.455-6.316,27.431-10.1,8.31-3.506,16.6-7.557,23.843-12.989,6.544-4.912,12.49-11.847,15.227-19.664a56.559,56.559,0,0,0,2.664-19.874c-.047-2.332-.162-4.662-.3-6.99-.184-3.069-4.986-3.091-4.8,0Z"/></svg>