<?xml version="1.0" encoding="iso-8859-1"?>
<!-- Uploaded to: SVG Repo, www.svgrepo.com, Generator: SVG Repo Mixer Tools -->
<!DOCTYPE svg PUBLIC "-//W3C//DTD SVG 1.1//EN" "http://www.w3.org/Graphics/SVG/1.1/DTD/svg11.dtd">
<svg fill="#000000" version="1.1" id="Capa_1" xmlns="http://www.w3.org/2000/svg" xmlns:xlink="http://www.w3.org/1999/xlink" 
	 width="800px" height="800px" viewBox="0 0 794.082 794.082"
	 xml:space="preserve">
<g>
	<path d="M713.298,186.754h0.003c0,90.051,0,179.204,0,269.796c-119.669,0.52-237.33,0.62-357.021,0.442c0-44.206,0-85.371,0-127.49
		c-17.63,0-33.229,0-52.015,0c0,44.361-1.585,86.458,0.541,128.362c1.495,29.475,29.195,51.681,59.068,51.744
		c114.688,0.25,229.375,0.143,344.062,0.619c34.097,0.146,60.201-24.021,60.039-60.542c-0.386-87.645-0.106-175.291-0.096-262.936
		h0.096v-45.693h-54.678L713.298,186.754L713.298,186.754z"/>
	<path d="M775.44,72.811c-5.709-1.829-12.212-1.547-18.359-1.557c-57.313-0.103-114.627-0.062-171.938-0.062
		c-4.248,0-8.469,0-12.485,0c-1.768-18.784-17.569-33.482-36.814-33.482s-35.052,14.699-36.817,33.482c-4.446,0-9.112,0-13.8,0
		c-55.239,0-110.48-0.002-165.728,0.004c-4.833,0.001-9.71-0.352-14.491,0.173c-14.131,1.546-26.798,14.699-26.558,27.161
		c0.239,12.377,13.224,25.016,27.354,26.417c3.421,0.34,6.902,0.102,10.354,0.102c147.084,0.003,294.167,0.003,441.25,0.001
		c3.455,0,6.929,0.237,10.354-0.082c13.365-1.242,25.063-12.418,26.25-24.873C794.962,90.027,786.329,76.301,775.44,72.811z"/>
	<path d="M358.014,201.16v-60.099h-54.678v60.099h2.078c17.43,0,33.452,0,50.521,0H358.014z"/>
	<g>
		<circle cx="149.113" cy="113.355" r="89.043"/>
		<path d="M439.494,215.397H211.476l-11.131,69.235l-10.105,62.865h-13.219l-8.515-96.739l9.972-35.357h-58.729l9.972,35.357
			l-8.515,96.739h-13.219L100,297.809l-10.042-62.466l-3.207-19.945H50h-0.125v0.003C22.317,215.468,0,237.825,0,265.398v212.99
			c0,27.612,22.386,50,50,50v187.548c0,27.614,22.386,50,50,50c24.416,0,44.731-17.505,49.112-40.646
			c4.382,23.142,24.699,40.646,49.115,40.646c27.614,0,50-22.386,50-50V503.403V414.59V315.4h191.269c27.613,0,50-22.387,50-50
			C489.494,237.783,467.109,215.397,439.494,215.397z"/>
	</g>
	<path d="M683.544,718.137l0.038-0.039L563.957,598.473v-69.024h-56.055v64.062v4.963L388.278,718.098l0.038,0.039
		c-10.936,10.935-10.936,28.663,0,39.598c10.936,10.937,28.663,10.936,39.599,0l79.988-79.988v64.023c0,15.464,12.534,28,28,28
		c15.464,0,28-12.536,28-28h0.055v-64.023l79.988,79.988c10.936,10.936,28.663,10.937,39.599,0
		C694.479,746.8,694.479,729.072,683.544,718.137z"/>
</g>
</svg>