<?xml version="1.0" encoding="iso-8859-1"?>
<!-- Uploaded to: SVG Repo, www.svgrepo.com, Generator: SVG Repo Mixer Tools -->
<svg height="800px" width="800px" version="1.1" id="Layer_1" xmlns="http://www.w3.org/2000/svg" xmlns:xlink="http://www.w3.org/1999/xlink" 
	 viewBox="0 0 491.52 491.52" xml:space="preserve">
<g>
	<path style="fill:#F6C358;" d="M245.599,347.758l0.161,0.108l0.001-0.001v-0.147l0.072,0.098l0.088-0.059h0.001l0.029-0.039v0.02
		l61.102-40.83l0.004,0.001v-30.752c-4.621,3.184-9.057,6.631-13.221,10.395c-26.812,24.237-53.108,20.085-53.108,20.085
		c-16.04,0.422-38.886-16.01-48.629-23.662c-2.478-1.946-5.024-3.809-7.636-5.572v29.505l0.004-0.001L245.599,347.758z"/>
	<polygon style="fill:#F6C358;" points="245.759,347.871 245.761,347.874 245.761,347.87 245.76,347.868 225.991,374.795 
		225.991,374.795 	"/>
</g>
<path style="fill:#64798A;" d="M180.809,81.803h38.036c3.467,0,6.913-0.525,10.213-1.584c6.891-2.21,17.844-6.283,26.138-9.434
	c7.396-2.811,15.543-2.911,23.008-0.29l40.036,14.055c26.936,9.895,29.684,35.182,29.684,35.182v71.463
	c0,0,3.534-23.855,15.75-43.448c2.967-4.758,4.59-10.229,4.59-15.836V70.259c0,0-3.848-30.235-33.533-37.381
	c0,0,12.094-25.749-19.24-31.84H200.049l0,0c-42.201,0-76.411,34.21-76.411,76.411v45.298c0,9.815,3.286,19.366,9.432,27.018
	c4.836,6.022,9.858,15.489,10.633,29.186v-60.043C151.124,85.65,180.809,81.803,180.809,81.803z"/>
<path style="fill:#FCD462;" d="M240.728,306.638c0,0,26.296,4.152,53.108-20.085c4.164-3.764,8.6-7.211,13.221-10.395
	c0.456-0.314,0.903-0.64,1.362-0.948c11.87-7.973,34.674-30.081,39.504-84.012v-71.463c0,0-2.748-25.287-29.684-35.182
	l-40.036-14.055c-7.465-2.621-15.612-2.521-23.008,0.29c-8.294,3.151-19.247,7.224-26.138,9.434
	c-3.3,1.058-6.746,1.584-10.213,1.584h-38.036c0,0-29.685,3.847-37.106,37.105v60.043v13.895c0,0,1.292,58.406,39.961,84.002
	c0.271,0.18,0.53,0.374,0.799,0.556c2.611,1.763,5.157,3.626,7.636,5.572C201.842,290.628,224.688,307.06,240.728,306.638z"/>
<g>
	<polygon style="fill:#D5D6DB;" points="266.691,376.379 256.056,391.65 265.878,453.554 290.492,408.796 	"/>
	<polygon style="fill:#D5D6DB;" points="225.791,453.828 235.656,391.65 224.927,376.243 201.026,408.796 	"/>
	<polygon style="fill:#D5D6DB;" points="225.991,374.795 225.156,375.932 245.761,347.976 245.761,347.874 245.759,347.871 	"/>
</g>
<g>
	<polygon style="fill:#E56353;" points="265.878,453.554 256.056,391.65 266.691,376.379 266.692,376.377 245.761,347.87 
		245.761,347.874 245.761,347.976 225.156,375.932 224.929,376.24 224.927,376.243 224.927,376.243 235.656,391.65 225.791,453.828 
		225.791,453.829 245.76,490.136 265.879,453.559 	"/>
	<polygon style="fill:#E56353;" points="245.883,490.358 247.79,488.451 245.823,490.25 	"/>
	<polygon style="fill:#E56353;" points="245.698,490.25 243.731,488.451 245.638,490.358 	"/>
	<polygon style="fill:#E56353;" points="245.67,490.39 245.76,490.481 245.851,490.39 245.761,490.309 245.76,490.307 
		245.759,490.309 	"/>
	<polygon style="fill:#E56353;" points="245.951,347.719 245.922,347.758 245.951,347.739 	"/>
	<polygon style="fill:#E56353;" points="245.761,347.719 245.761,347.866 245.834,347.817 	"/>
</g>
<g>
	<polygon style="fill:#E1E6E9;" points="245.951,347.739 245.922,347.758 245.921,347.758 245.834,347.817 245.761,347.866 
		245.76,347.867 245.761,347.867 245.76,347.868 245.761,347.87 266.692,376.377 290.498,408.799 340.036,318.732 307.057,306.91 
		307.053,306.909 	"/>
	<polygon style="fill:#E1E6E9;" points="224.927,376.243 224.929,376.24 225.991,374.795 245.76,347.868 245.761,347.867 
		245.76,347.867 245.599,347.758 184.468,306.909 184.463,306.91 151.485,318.732 201.023,408.799 	"/>
</g>
<g>
	<path style="fill:#3A556A;" d="M491.208,463.92l-11.095-67c-2.993-18.073-15.511-33.121-32.737-39.353l-107.34-38.835
		l28.509,57.171l-35.655,0.55l12.093,23.088l-97.193,88.911l-1.907,1.907l0.068,0.123h25.785h196.947
		C482.782,490.482,493.511,477.83,491.208,463.92z"/>
	<polygon style="fill:#3A556A;" points="245.851,490.39 245.76,490.481 245.761,490.482 245.951,490.482 	"/>
</g>
<g>
	<polygon style="fill:#2F4859;" points="265.879,453.559 245.76,490.136 245.761,490.137 245.823,490.25 247.79,488.451 
		344.983,399.54 332.89,376.452 368.545,375.903 340.036,318.732 290.498,408.799 	"/>
	<polygon style="fill:#2F4859;" points="245.67,490.39 245.759,490.309 245.76,490.307 245.698,490.25 245.638,490.358 	"/>
</g>
<path style="fill:#3A556A;" d="M245.67,490.39l-0.032-0.032l-1.907-1.907l-97.194-88.911l12.094-23.088l-35.655-0.55l28.509-57.171
	l-107.34,38.835c-17.226,6.232-29.744,21.28-32.737,39.353l-11.096,67c-2.303,13.91,8.426,26.562,22.526,26.562h197.138h15.218
	h0.189h10.376h0.002l-0.001-0.001L245.67,490.39z"/>
<polygon style="fill:#2F4859;" points="245.883,490.358 245.823,490.25 245.761,490.137 245.76,490.136 225.791,453.829 
	201.023,408.799 151.485,318.732 122.976,375.903 158.631,376.452 146.537,399.54 243.731,488.451 245.698,490.25 245.76,490.307 
	245.761,490.309 245.851,490.39 245.951,490.482 "/>
</svg>