<?xml version="1.0" encoding="utf-8"?>
<!-- Uploaded to: SVG Repo, www.svgrepo.com, Generator: SVG Repo Mixer Tools -->
<svg width="800px" height="800px" viewBox="0 0 1024 1024" class="icon"  version="1.1" xmlns="http://www.w3.org/2000/svg"><path d="M776 239l-48-13 48-13 13-49 13 49 48 13-48 13-13 48-13-48zM824 292l-19-5 19-4 4-19 5 19 18 4-18 5-5 18-4-18z" fill="#FDCD60" /><path d="M184 562l-21-5 21-5 5-21 5 21 21 5-21 5-5 21-5-21z" fill="#FDCD60" /><path d="M212 255m-9 0a9 9 0 1 0 18 0 9 9 0 1 0-18 0Z" fill="#5546CB" /><path d="M805 754a25 25 0 1 1 25-25 25 25 0 0 1-25 25z m0-36a10 10 0 1 0 10 10 10 10 0 0 0-10-10z" fill="#5546CB" /><path d="M747.553228 751.6268l51.618795 51.618795-125.942789 125.942788-51.618795-51.618795 125.942789-125.942788Z" fill="#F97744" /><path d="M695 820l-40 40c-10 10-10 27 1 38 9 8 25 9 36-1l40-40zM232 847l-27-6 27-7 6-27 7 27 27 7-27 6-7 27-6-27z" fill="#FDCD60" /><path d="M723 677V460H308v217zM459 559h49v-49h20v49h49v20h-49v49h-20v-49h-49z" fill="#FFFFFF" /><path d="M632 765a47 47 0 0 1 66 0l11 11 5-5 9-7v-67H307v132a34 34 0 0 0 34 34h288a47 47 0 0 1 11-19l3-3-11-11a47 47 0 0 1 0-65zM723 369a34 34 0 0 0-34-34H544v-74h-58v73H341a34 34 0 0 0-34 34v71h416zM508 628h20v-49h49v-20h-49v-49h-20v49h-49v20h49v49z" fill="#FF8859" /><path d="M424 153h19v87.98h-19zM464 153h19v87.98h-19zM385 154v87h19v-88h-19zM645 240v-86h-24v88h23zM582 153h19v87.98h-19zM503 153h19v87.98h-19zM543 153h19v87.98h-19z" fill="#FDCD60" /><path d="M724 893a27 27 0 0 0 37-37zM695 790l-11-11a27 27 0 0 0-38 38l11 11z" fill="#AFBCF3" /><path d="M650 889l-2-6zM748 777a26 26 0 0 0-18 8l-48 48 13-13 37 36-20 20 55-55a26 26 0 0 0-18-44z" fill="#F97744" /><path d="M781 836a47 47 0 0 0-38-80V369a54 54 0 0 0-54-54H564v-54h80a21 21 0 0 0 21-21v-86a21 21 0 0 0-21-21H386a21 21 0 0 0-21 21v87a21 21 0 0 0 21 21h80v54H341a54 54 0 0 0-54 54v459a54 54 0 0 0 54 54h286a47 47 0 0 0 80 28l3-3a47 47 0 0 0 66-66zM621 153h23v87h-23z m-39 0h19v88h-19z m141 307v217H308V460zM543 153h19v88h-19z m-39 0h19v88h-20z m-99 88h-20v-87h19z m39 0h-20v-88h19z m20 0v-88h19v88zM307 369a34 34 0 0 1 34-34h145v-74h59v73h144a34 34 0 0 1 34 34v71H307z m333 475a47 47 0 0 0-11 19H341a34 34 0 0 1-34-34V697h416v66l-9 7-5 5-11-11a47 47 0 0 0-66 66l11 11z m7-65a27 27 0 0 1 38 0l11 11-38 38-11-11a27 27 0 0 1 0-38z m111 112a27 27 0 0 1-34 3l37-37a27 27 0 0 1-3 34z m8-69l-55 55-20 20c-10 10-27 9-36 1l-5-7-2-6a26 26 0 0 1 7-23l27-26 48-48a26 26 0 0 1 37 37z" fill="#5546CB" /><path d="M695 819l-13 13-27 26a26 26 0 0 0-7 23l2 6 5 7c9 8 25 9 36-1l20-20 20-20z" fill="#FDCD60" /></svg>