<svg width="66" height="66" viewBox="0 0 66 66" fill="none" xmlns="http://www.w3.org/2000/svg">
<rect width="66" height="66" rx="16" fill="#083D77"/>
<path d="M34 46L29 40V34H39V40L34 46Z" fill="#FF9800"/>
<path d="M43 30C44.1046 30 45 29.1046 45 28C45 26.8954 44.1046 26 43 26C41.8954 26 41 26.8954 41 28C41 29.1046 41.8954 30 43 30Z" fill="#FFA726"/>
<path d="M25 30C26.1046 30 27 29.1046 27 28C27 26.8954 26.1046 26 25 26C23.8954 26 23 26.8954 23 28C23 29.1046 23.8954 30 25 30Z" fill="#FFA726"/>
<path d="M43 22C43 14.4 25 17 25 22V29C25 34 29 38 34 38C39 38 43 34 43 29V22Z" fill="#FFB74D"/>
<path d="M34 13C27.9 13 24 17.9 24 24V26.3L26 28V23L38 19L42 23V28L44 26.3V24C44 20 43 16 38 15L37 13H34Z" fill="#0B0300"/>
<path d="M38 29C38.5523 29 39 28.5523 39 28C39 27.4477 38.5523 27 38 27C37.4477 27 37 27.4477 37 28C37 28.5523 37.4477 29 38 29Z" fill="#784719"/>
<path d="M30 29C30.5523 29 31 28.5523 31 28C31 27.4477 30.5523 27 30 27C29.4477 27 29 27.4477 29 28C29 28.5523 29.4477 29 30 29Z" fill="#784719"/>
<path d="M39 40L34 41L29 40C29 40 18 42 18 53H50C50 42 39 40 39 40Z" fill="#CFD8DC"/>
<path d="M33 44L32 53H36L35 44L36 43L34 41L32 43L33 44Z" fill="#3F51B5"/>
</svg>
