<svg width="66" height="66" viewBox="0 0 66 66" fill="none" xmlns="http://www.w3.org/2000/svg">
<rect width="66" height="66" rx="16" fill="#083D77"/>
<path d="M47 22C43.7 22 41 21.1 41 20V22C41 23.1 43.7 24 47 24C50.3 24 53 23.1 53 22V20C53 21.1 50.3 22 47 22Z" fill="#FFA000"/>
<path d="M47 19C43.7 19 41 18.1 41 17V19C41 20.1 43.7 21 47 21C50.3 21 53 20.1 53 19V17C53 18.1 50.3 19 47 19ZM47 25C43.7 25 41 24.1 41 23V25C41 26.1 43.7 27 47 27C50.3 27 53 26.1 53 25V23C53 24.1 50.3 25 47 25Z" fill="#FFA000"/>
<path d="M47 28C43.7 28 41 27.1 41 26V28C41 29.1 43.7 30 47 30C50.3 30 53 29.1 53 28V26C53 27.1 50.3 28 47 28Z" fill="#FFA000"/>
<path d="M47 31C43.7 31 41 30.1 41 29V31C41 32.1 43.7 33 47 33C50.3 33 53 32.1 53 31V29C53 30.1 50.3 31 47 31Z" fill="#FFA000"/>
<path d="M47 34C43.7 34 41 33.1 41 32V34C41 35.1 43.7 36 47 36C50.3 36 53 35.1 53 34V32C53 33.1 50.3 34 47 34Z" fill="#FFA000"/>
<path d="M47 37C43.7 37 41 36.1 41 35V37C41 38.1 43.7 39 47 39C50.3 39 53 38.1 53 37V35C53 36.1 50.3 37 47 37Z" fill="#FFA000"/>
<path d="M47 40C43.7 40 41 39.1 41 38V40C41 41.1 43.7 42 47 42C50.3 42 53 41.1 53 40V38C53 39.1 50.3 40 47 40Z" fill="#FFA000"/>
<path d="M47 43C43.7 43 41 42.1 41 41V43C41 44.1 43.7 45 47 45C50.3 45 53 44.1 53 43V41C53 42.1 50.3 43 47 43Z" fill="#FFA000"/>
<path d="M47 46C43.7 46 41 45.1 41 44V46C41 47.1 43.7 48 47 48C50.3 48 53 47.1 53 46V44C53 45.1 50.3 46 47 46Z" fill="#FFA000"/>
<path d="M47 49C43.7 49 41 48.1 41 47V49C41 50.1 43.7 51 47 51C50.3 51 53 50.1 53 49V47C53 48.1 50.3 49 47 49Z" fill="#FFA000"/>
<path d="M47 19C50.3137 19 53 18.1046 53 17C53 15.8954 50.3137 15 47 15C43.6863 15 41 15.8954 41 17C41 18.1046 43.6863 19 47 19Z" fill="#FFC107"/>
<path d="M47 21C44.2 21 41.9 20.4 41.2 19.5C41.1 19.7 41 19.8 41 20C41 21.1 43.7 22 47 22C50.3 22 53 21.1 53 20C53 19.8 52.9 19.7 52.8 19.5C52.1 20.4 49.8 21 47 21ZM47 24C44.2 24 41.9 23.4 41.2 22.5C41.1 22.7 41 22.8 41 23C41 24.1 43.7 25 47 25C50.3 25 53 24.1 53 23C53 22.8 52.9 22.7 52.8 22.5C52.1 23.4 49.8 24 47 24ZM47 27C44.2 27 41.9 26.4 41.2 25.5C41.1 25.7 41 25.8 41 26C41 27.1 43.7 28 47 28C50.3 28 53 27.1 53 26C53 25.8 52.9 25.7 52.8 25.5C52.1 26.4 49.8 27 47 27ZM47 30C44.2 30 41.9 29.4 41.2 28.5C41.1 28.7 41 28.8 41 29C41 30.1 43.7 31 47 31C50.3 31 53 30.1 53 29C53 28.8 52.9 28.7 52.8 28.5C52.1 29.4 49.8 30 47 30ZM47 33C44.2 33 41.9 32.4 41.2 31.5C41.1 31.7 41 31.8 41 32C41 33.1 43.7 34 47 34C50.3 34 53 33.1 53 32C53 31.8 52.9 31.7 52.8 31.5C52.1 32.4 49.8 33 47 33ZM47 36C44.2 36 41.9 35.4 41.2 34.5C41.1 34.7 41 34.8 41 35C41 36.1 43.7 37 47 37C50.3 37 53 36.1 53 35C53 34.8 52.9 34.7 52.8 34.5C52.1 35.4 49.8 36 47 36ZM47 39C44.2 39 41.9 38.4 41.2 37.5C41.1 37.7 41 37.8 41 38C41 39.1 43.7 40 47 40C50.3 40 53 39.1 53 38C53 37.8 52.9 37.7 52.8 37.5C52.1 38.4 49.8 39 47 39ZM47 42C44.2 42 41.9 41.4 41.2 40.5C41.1 40.7 41 40.8 41 41C41 42.1 43.7 43 47 43C50.3 43 53 42.1 53 41C53 40.8 52.9 40.7 52.8 40.5C52.1 41.4 49.8 42 47 42ZM47 45C44.2 45 41.9 44.4 41.2 43.5C41.1 43.7 41 43.8 41 44C41 45.1 43.7 46 47 46C50.3 46 53 45.1 53 44C53 43.8 52.9 43.7 52.8 43.5C52.1 44.4 49.8 45 47 45ZM47 48C44.2 48 41.9 47.4 41.2 46.5C41.1 46.7 41 46.8 41 47C41 48.1 43.7 49 47 49C50.3 49 53 48.1 53 47C53 46.8 52.9 46.7 52.8 46.5C52.1 47.4 49.8 48 47 48Z" fill="#FFC107"/>
<path d="M19 28C15.7 28 13 27.1 13 26V28C13 29.1 15.7 30 19 30C22.3 30 25 29.1 25 28V26C25 27.1 22.3 28 19 28Z" fill="#FFA000"/>
<path d="M19 25C15.7 25 13 24.1 13 23V25C13 26.1 15.7 27 19 27C22.3 27 25 26.1 25 25V23C25 24.1 22.3 25 19 25ZM19 31C15.7 31 13 30.1 13 29V31C13 32.1 15.7 33 19 33C22.3 33 25 32.1 25 31V29C25 30.1 22.3 31 19 31Z" fill="#FFA000"/>
<path d="M19 34C15.7 34 13 33.1 13 32V34C13 35.1 15.7 36 19 36C22.3 36 25 35.1 25 34V32C25 33.1 22.3 34 19 34Z" fill="#FFA000"/>
<path d="M19 37C15.7 37 13 36.1 13 35V37C13 38.1 15.7 39 19 39C22.3 39 25 38.1 25 37V35C25 36.1 22.3 37 19 37Z" fill="#FFA000"/>
<path d="M19 40C15.7 40 13 39.1 13 38V40C13 41.1 15.7 42 19 42C22.3 42 25 41.1 25 40V38C25 39.1 22.3 40 19 40Z" fill="#FFA000"/>
<path d="M19 43C15.7 43 13 42.1 13 41V43C13 44.1 15.7 45 19 45C22.3 45 25 44.1 25 43V41C25 42.1 22.3 43 19 43Z" fill="#FFA000"/>
<path d="M19 46C15.7 46 13 45.1 13 44V46C13 47.1 15.7 48 19 48C22.3 48 25 47.1 25 46V44C25 45.1 22.3 46 19 46Z" fill="#FFA000"/>
<path d="M19 49C15.7 49 13 48.1 13 47V49C13 50.1 15.7 51 19 51C22.3 51 25 50.1 25 49V47C25 48.1 22.3 49 19 49Z" fill="#FFA000"/>
<path d="M19 25C22.3137 25 25 24.1046 25 23C25 21.8954 22.3137 21 19 21C15.6863 21 13 21.8954 13 23C13 24.1046 15.6863 25 19 25Z" fill="#FFC107"/>
<path d="M19 27C16.2 27 13.9 26.4 13.2 25.5C13.1 25.7 13 25.8 13 26C13 27.1 15.7 28 19 28C22.3 28 25 27.1 25 26C25 25.8 24.9 25.7 24.8 25.5C24.1 26.4 21.8 27 19 27ZM19 30C16.2 30 13.9 29.4 13.2 28.5C13.1 28.7 13 28.8 13 29C13 30.1 15.7 31 19 31C22.3 31 25 30.1 25 29C25 28.8 24.9 28.7 24.8 28.5C24.1 29.4 21.8 30 19 30ZM19 33C16.2 33 13.9 32.4 13.2 31.5C13.1 31.7 13 31.8 13 32C13 33.1 15.7 34 19 34C22.3 34 25 33.1 25 32C25 31.8 24.9 31.7 24.8 31.5C24.1 32.4 21.8 33 19 33ZM19 36C16.2 36 13.9 35.4 13.2 34.5C13.1 34.7 13 34.8 13 35C13 36.1 15.7 37 19 37C22.3 37 25 36.1 25 35C25 34.8 24.9 34.7 24.8 34.5C24.1 35.4 21.8 36 19 36ZM19 39C16.2 39 13.9 38.4 13.2 37.5C13.1 37.7 13 37.8 13 38C13 39.1 15.7 40 19 40C22.3 40 25 39.1 25 38C25 37.8 24.9 37.7 24.8 37.5C24.1 38.4 21.8 39 19 39ZM19 42C16.2 42 13.9 41.4 13.2 40.5C13.1 40.7 13 40.8 13 41C13 42.1 15.7 43 19 43C22.3 43 25 42.1 25 41C25 40.8 24.9 40.7 24.8 40.5C24.1 41.4 21.8 42 19 42ZM19 45C16.2 45 13.9 44.4 13.2 43.5C13.1 43.7 13 43.8 13 44C13 45.1 15.7 46 19 46C22.3 46 25 45.1 25 44C25 43.8 24.9 43.7 24.8 43.5C24.1 44.4 21.8 45 19 45ZM19 48C16.2 48 13.9 47.4 13.2 46.5C13.1 46.7 13 46.8 13 47C13 48.1 15.7 49 19 49C22.3 49 25 48.1 25 47C25 46.8 24.9 46.7 24.8 46.5C24.1 47.4 21.8 48 19 48Z" fill="#FFC107"/>
<path d="M33 37C29.7 37 27 36.1 27 35V37C27 38.1 29.7 39 33 39C36.3 39 39 38.1 39 37V35C39 36.1 36.3 37 33 37Z" fill="#FFA000"/>
<path d="M33 34C29.7 34 27 33.1 27 32V34C27 35.1 29.7 36 33 36C36.3 36 39 35.1 39 34V32C39 33.1 36.3 34 33 34ZM33 40C29.7 40 27 39.1 27 38V40C27 41.1 29.7 42 33 42C36.3 42 39 41.1 39 40V38C39 39.1 36.3 40 33 40Z" fill="#FFA000"/>
<path d="M33 43C29.7 43 27 42.1 27 41V43C27 44.1 29.7 45 33 45C36.3 45 39 44.1 39 43V41C39 42.1 36.3 43 33 43Z" fill="#FFA000"/>
<path d="M33 46C29.7 46 27 45.1 27 44V46C27 47.1 29.7 48 33 48C36.3 48 39 47.1 39 46V44C39 45.1 36.3 46 33 46Z" fill="#FFA000"/>
<path d="M33 49C29.7 49 27 48.1 27 47V49C27 50.1 29.7 51 33 51C36.3 51 39 50.1 39 49V47C39 48.1 36.3 49 33 49Z" fill="#FFA000"/>
<path d="M33 34C36.3137 34 39 33.1046 39 32C39 30.8954 36.3137 30 33 30C29.6863 30 27 30.8954 27 32C27 33.1046 29.6863 34 33 34Z" fill="#FFC107"/>
<path d="M33 36C30.2 36 27.9 35.4 27.2 34.5C27.1 34.7 27 34.8 27 35C27 36.1 29.7 37 33 37C36.3 37 39 36.1 39 35C39 34.8 38.9 34.7 38.8 34.5C38.1 35.4 35.8 36 33 36ZM33 39C30.2 39 27.9 38.4 27.2 37.5C27.1 37.7 27 37.8 27 38C27 39.1 29.7 40 33 40C36.3 40 39 39.1 39 38C39 37.8 38.9 37.7 38.8 37.5C38.1 38.4 35.8 39 33 39ZM33 42C30.2 42 27.9 41.4 27.2 40.5C27.1 40.7 27 40.8 27 41C27 42.1 29.7 43 33 43C36.3 43 39 42.1 39 41C39 40.8 38.9 40.7 38.8 40.5C38.1 41.4 35.8 42 33 42ZM33 45C30.2 45 27.9 44.4 27.2 43.5C27.1 43.7 27 43.8 27 44C27 45.1 29.7 46 33 46C36.3 46 39 45.1 39 44C39 43.8 38.9 43.7 38.8 43.5C38.1 44.4 35.8 45 33 45ZM33 48C30.2 48 27.9 47.4 27.2 46.5C27.1 46.7 27 46.8 27 47C27 48.1 29.7 49 33 49C36.3 49 39 48.1 39 47C39 46.8 38.9 46.7 38.8 46.5C38.1 47.4 35.8 48 33 48Z" fill="#FFC107"/>
</svg>
