<?xml version="1.0" encoding="utf-8"?><!-- Uploaded to: SVG Repo, www.svgrepo.com, Generator: SVG Repo Mixer Tools -->
<svg fill="#000000" width="800px" height="800px" viewBox="0 0 1024 1024" xmlns="http://www.w3.org/2000/svg"><path d="M136.948 908.811c5.657 0 10.24-4.583 10.24-10.24V610.755c0-5.657-4.583-10.24-10.24-10.24h-81.92a10.238 10.238 0 00-10.24 10.24v287.816c0 5.657 4.583 10.24 10.24 10.24h81.92zm0 40.96h-81.92c-28.278 0-51.2-22.922-51.2-51.2V610.755c0-28.278 22.922-51.2 51.2-51.2h81.92c28.278 0 51.2 22.922 51.2 51.2v287.816c0 28.278-22.922 51.2-51.2 51.2zm278.414-40.96c5.657 0 10.24-4.583 10.24-10.24V551.322c0-5.657-4.583-10.24-10.24-10.24h-81.92a10.238 10.238 0 00-10.24 10.24v347.249c0 5.657 4.583 10.24 10.24 10.24h81.92zm0 40.96h-81.92c-28.278 0-51.2-22.922-51.2-51.2V551.322c0-28.278 22.922-51.2 51.2-51.2h81.92c28.278 0 51.2 22.922 51.2 51.2v347.249c0 28.278-22.922 51.2-51.2 51.2zm278.414-40.342c5.657 0 10.24-4.583 10.24-10.24V492.497c0-5.651-4.588-10.24-10.24-10.24h-81.92c-5.652 0-10.24 4.589-10.24 10.24v406.692c0 5.657 4.583 10.24 10.24 10.24h81.92zm0 40.96h-81.92c-28.278 0-51.2-22.922-51.2-51.2V492.497c0-28.271 22.924-51.2 51.2-51.2h81.92c28.276 0 51.2 22.929 51.2 51.2v406.692c0 28.278-22.922 51.2-51.2 51.2zm278.414-40.958c5.657 0 10.24-4.583 10.24-10.24V441.299c0-5.657-4.583-10.24-10.24-10.24h-81.92a10.238 10.238 0 00-10.24 10.24v457.892c0 5.657 4.583 10.24 10.24 10.24h81.92zm0 40.96h-81.92c-28.278 0-51.2-22.922-51.2-51.2V441.299c0-28.278 22.922-51.2 51.2-51.2h81.92c28.278 0 51.2 22.922 51.2 51.2v457.892c0 28.278-22.922 51.2-51.2 51.2zm-6.205-841.902C677.379 271.088 355.268 367.011 19.245 387.336c-11.29.683-19.889 10.389-19.206 21.679s10.389 19.889 21.679 19.206c342.256-20.702 670.39-118.419 964.372-284.046 9.854-5.552 13.342-18.041 7.79-27.896s-18.041-13.342-27.896-7.79z"/><path d="M901.21 112.64l102.39.154c11.311.017 20.494-9.138 20.511-20.449s-9.138-20.494-20.449-20.511l-102.39-.154c-11.311-.017-20.494 9.138-20.511 20.449s9.138 20.494 20.449 20.511z"/><path d="M983.151 92.251l-.307 101.827c-.034 11.311 9.107 20.508 20.418 20.542s20.508-9.107 20.542-20.418l.307-101.827c.034-11.311-9.107-20.508-20.418-20.542s-20.508 9.107-20.542 20.418z"/></svg>