<svg width="66" height="66" viewBox="0 0 66 66" fill="none" xmlns="http://www.w3.org/2000/svg">
<rect width="66" height="66" rx="16" fill="#083D77"/>
<path d="M46.4 33.6L34.8 31.4L30.9 20.2L27.1 21.5L31 32.6L23.2 41.6L26.2 44.2L34 35.2L45.6 37.4L46.4 33.6Z" fill="#EF6C00"/>
<path d="M33 28C30.2 28 28 30.2 28 33C28 35.8 30.2 38 33 38C35.8 38 38 35.8 38 33C38 30.2 35.8 28 33 28ZM33 35C31.9 35 31 34.1 31 33C31 31.9 31.9 31 33 31C34.1 31 35 31.9 35 33C35 34.1 34.1 35 33 35Z" fill="#FF9800"/>
<path d="M49.7 36C49.9 35 50 34 50 33C50 32 49.9 31 49.7 30L53 27.6C53.4 27.3 53.6 26.7 53.3 26.2L49 18.8C48.7 18.3 48.2 18.1 47.7 18.4L44 20C42.5 18.7 40.7 17.7 38.8 17L38.4 12.9C38.3 12.4 37.9 12 37.4 12H28.8C28.3 12 27.8 12.4 27.8 12.9L27.2 17C25.3 17.7 23.5 18.7 22 20L18.3 18.3C17.8 18.1 17.2 18.3 17 18.8L12.7 26.2C12.4 26.7 12.6 27.3 13 27.6L16.3 30C16.1 31 16 32 16 33C16 34 16.1 35 16.3 36L13 38.4C12.6 38.7 12.4 39.3 12.7 39.8L17 47.2C17.3 47.7 17.8 47.9 18.3 47.6L22 46C23.5 47.3 25.3 48.3 27.2 49L27.6 53.1C27.7 53.6 28.1 54 28.6 54H37.2C37.7 54 38.2 53.6 38.2 53.1L38.6 49C40.5 48.3 42.3 47.3 43.8 46L47.5 47.7C48 47.9 48.6 47.7 48.8 47.3L53.1 39.9C53.4 39.4 53.2 38.8 52.8 38.5L49.7 36ZM33 44C26.9 44 22 39.1 22 33C22 26.9 26.9 22 33 22C39.1 22 44 26.9 44 33C44 39.1 39.1 44 33 44Z" fill="#FF9800"/>
</svg>
